#N canvas 77 23 1287 820 10;
#N canvas 737 41 529 644 euclid1 0;
#X obj 304 93 i;
#X obj 85 96 i;
#X obj 293 350 i;
#X obj 89 72 hsl 128 15 1 32 0 0 empty empty empty -2 -8 0 10 -262144
-1 -1 2868 1;
#X obj 309 72 hsl 128 15 1 32 0 0 empty empty empty -2 -8 0 10 -262144
-1 -1 410 1;
#X text 184 56 Steps;
#X text 400 52 Pulses;
#X obj 80 158 moses;
#X floatatom 80 129 5 0 0 0 - - -;
#X floatatom 297 125 5 0 0 0 - - -;
#X obj 297 156 moses;
#X obj 293 327 i;
#X obj 354 327 + 1;
#X floatatom 293 372 5 0 0 0 - - -;
#X obj 327 409 moses;
#X obj 354 435 bng 15 250 50 0 empty empty empty 17 7 0 10 -262144
-1 -1;
#X obj 354 378 - 1;
#X text 250 370 count;
#X obj 338 115 s pulses1;
#X obj 119 119 s steps1;
#X obj 353 303 r setCount1;
#X obj 85 50 r setSteps1;
#X obj 306 50 r setPulses1;
#X obj 324 183 s setSteps1;
#X obj 80 184 s setPulses1;
#X obj 338 135 r steps1;
#X text 337 157 Pulses always < steps;
#X obj 118 139 r pulses1;
#X text 119 159 Pulses always < steps;
#X obj 354 354 r steps1;
#X obj 115 295 i;
#X text 68 320 bucket;
#X obj 130 343 r pulses1;
#X floatatom 115 321 5 0 0 0 - - -;
#X obj 130 269 r setBucket1;
#X obj 114 446 moses;
#X obj 140 374 r steps1;
#X obj 164 487 -;
#X obj 140 397 i;
#X floatatom 186 448 5 0 0 0 - - -;
#X obj 115 365 +;
#X obj 132 487 bng 15 250 50 0 empty empty empty 17 7 0 10 -262144
-1 -1;
#X obj 114 487 bng 15 250 50 0 empty empty empty 17 7 0 10 -262144
-1 -1;
#X floatatom 78 399 5 0 0 0 - - -;
#X msg 354 462 \; setCount1 0 \; setBucket1 0 \; \;;
#X obj 164 512 s setBucket1;
#X obj 30 486 s setBucket1;
#X obj 293 434 s count1;
#X obj 115 247 r masterTempo;
#X obj 293 279 r masterTempo;
#X obj 135 543 s play0;
#X obj 110 567 s noplay0;
#X connect 0 0 9 0;
#X connect 0 0 18 0;
#X connect 1 0 8 0;
#X connect 1 0 19 0;
#X connect 2 0 13 0;
#X connect 3 0 1 0;
#X connect 4 0 0 0;
#X connect 7 0 24 0;
#X connect 8 0 7 0;
#X connect 9 0 10 0;
#X connect 10 1 23 0;
#X connect 11 0 12 0;
#X connect 11 0 2 0;
#X connect 12 0 11 1;
#X connect 13 0 14 0;
#X connect 13 0 47 0;
#X connect 14 1 15 0;
#X connect 15 0 44 0;
#X connect 16 0 14 1;
#X connect 20 0 11 1;
#X connect 21 0 3 0;
#X connect 22 0 4 0;
#X connect 25 0 10 1;
#X connect 27 0 7 1;
#X connect 29 0 16 0;
#X connect 30 0 33 0;
#X connect 32 0 40 1;
#X connect 33 0 40 0;
#X connect 34 0 30 1;
#X connect 35 0 42 0;
#X connect 35 0 46 0;
#X connect 35 1 41 0;
#X connect 35 1 37 0;
#X connect 36 0 38 0;
#X connect 37 0 45 0;
#X connect 38 0 35 1;
#X connect 38 0 37 1;
#X connect 38 0 39 0;
#X connect 40 0 35 0;
#X connect 40 0 43 0;
#X connect 41 0 50 0;
#X connect 42 0 51 0;
#X connect 48 0 30 0;
#X connect 49 0 11 0;
#X restore 419 221 pd euclid1;
#N canvas 0 23 585 645 euclid2 0;
#X obj 332 98 i;
#X obj 113 101 i;
#X obj 312 339 i;
#X obj 117 77 hsl 128 15 1 32 0 0 empty empty empty -2 -8 0 10 -262144
-1 -1 2868 1;
#X obj 338 78 hsl 128 15 1 32 0 0 empty empty empty -2 -8 0 10 -262144
-1 -1 819 1;
#X text 212 61 Steps;
#X text 428 57 Pulses;
#X obj 108 163 moses;
#X floatatom 108 134 5 0 0 0 - - -;
#X floatatom 325 130 5 0 0 0 - - -;
#X obj 325 161 moses;
#X obj 312 316 i;
#X obj 373 316 + 1;
#X floatatom 312 361 5 0 0 0 - - -;
#X obj 346 398 moses;
#X obj 373 424 bng 15 250 50 0 empty empty empty 17 7 0 10 -262144
-1 -1;
#X obj 373 367 - 1;
#X text 269 359 count;
#X text 365 162 Pulses always < steps;
#X text 147 164 Pulses always < steps;
#X obj 115 295 i;
#X text 68 320 bucket;
#X floatatom 115 321 5 0 0 0 - - -;
#X obj 114 446 moses;
#X obj 164 487 -;
#X obj 140 397 i;
#X floatatom 186 448 5 0 0 0 - - -;
#X obj 115 365 +;
#X obj 132 487 bng 15 250 50 0 empty empty empty 17 7 0 10 -262144
-1 -1;
#X obj 114 487 bng 15 250 50 0 empty empty empty 17 7 0 10 -262144
-1 -1;
#X floatatom 78 399 5 0 0 0 - - -;
#X obj 113 55 r setSteps2;
#X obj 147 124 s steps2;
#X obj 146 144 r pulses2;
#X obj 108 189 s setPulses2;
#X obj 334 55 r setPulses2;
#X obj 366 120 s pulses2;
#X obj 366 140 r steps2;
#X obj 352 188 s setSteps2;
#X obj 130 269 r setBucket2;
#X obj 130 343 r pulses2;
#X obj 140 374 r steps2;
#X obj 30 486 s setBucket2;
#X obj 164 512 s setBucket2;
#X obj 372 292 r setCount2;
#X obj 373 343 r steps2;
#X msg 373 451 \; setCount2 0 \; setBucket2 0 \; \;;
#X obj 312 423 s count2;
#X obj 115 247 r masterTempo;
#X obj 132 558 s play1;
#X obj 109 580 s noplay1;
#X obj 312 262 r masterTempo;
#X connect 0 0 9 0;
#X connect 0 0 36 0;
#X connect 1 0 8 0;
#X connect 1 0 32 0;
#X connect 2 0 13 0;
#X connect 3 0 1 0;
#X connect 4 0 0 0;
#X connect 7 0 34 0;
#X connect 8 0 7 0;
#X connect 9 0 10 0;
#X connect 10 1 38 0;
#X connect 11 0 12 0;
#X connect 11 0 2 0;
#X connect 12 0 11 1;
#X connect 13 0 14 0;
#X connect 13 0 47 0;
#X connect 14 1 15 0;
#X connect 15 0 46 0;
#X connect 16 0 14 1;
#X connect 20 0 22 0;
#X connect 22 0 27 0;
#X connect 23 0 29 0;
#X connect 23 0 42 0;
#X connect 23 1 28 0;
#X connect 23 1 24 0;
#X connect 24 0 43 0;
#X connect 25 0 23 1;
#X connect 25 0 24 1;
#X connect 25 0 26 0;
#X connect 27 0 23 0;
#X connect 27 0 30 0;
#X connect 28 0 49 0;
#X connect 29 0 50 0;
#X connect 31 0 3 0;
#X connect 33 0 7 1;
#X connect 35 0 4 0;
#X connect 37 0 10 1;
#X connect 39 0 20 1;
#X connect 40 0 27 1;
#X connect 41 0 25 0;
#X connect 44 0 11 1;
#X connect 45 0 16 0;
#X connect 48 0 20 0;
#X connect 51 0 11 0;
#X restore 419 245 pd euclid2;
#N canvas 0 23 571 639 euclid3 0;
#X obj 317 90 i;
#X obj 98 93 i;
#X obj 311 356 i;
#X obj 102 69 hsl 128 15 1 32 0 0 empty empty empty -2 -8 0 10 -262144
-1 -1 2868 1;
#X obj 322 69 hsl 128 15 1 32 0 0 empty empty empty -2 -8 0 10 -262144
-1 -1 1229 1;
#X text 197 53 Steps;
#X text 413 49 Pulses;
#X obj 93 155 moses;
#X floatatom 93 126 5 0 0 0 - - -;
#X floatatom 310 122 5 0 0 0 - - -;
#X obj 310 153 moses;
#X obj 311 333 i;
#X obj 372 333 + 1;
#X floatatom 311 378 5 0 0 0 - - -;
#X obj 345 415 moses;
#X obj 372 441 bng 15 250 50 0 empty empty empty 17 7 0 10 -262144
-1 -1;
#X obj 372 384 - 1;
#X text 268 376 count;
#X text 350 154 Pulses always < steps;
#X text 132 156 Pulses always < steps;
#X obj 115 295 i;
#X text 68 320 bucket;
#X floatatom 115 321 5 0 0 0 - - -;
#X obj 114 446 moses;
#X obj 164 487 -;
#X obj 140 397 i;
#X floatatom 186 448 5 0 0 0 - - -;
#X obj 115 365 +;
#X obj 132 487 bng 15 250 50 0 empty empty empty 17 7 0 10 -262144
-1 -1;
#X obj 114 487 bng 15 250 50 0 empty empty empty 17 7 0 10 -262144
-1 -1;
#X floatatom 78 399 5 0 0 0 - - -;
#X obj 115 247 r masterTempo;
#X obj 310 284 r masterTempo;
#X obj 98 47 r setSteps3;
#X obj 132 116 s steps3;
#X obj 131 136 r pulses3;
#X obj 93 181 s setPulses3;
#X obj 319 47 r setPulses3;
#X obj 351 112 s pulses3;
#X obj 351 132 r steps3;
#X obj 337 180 s setSteps3;
#X obj 130 269 r setBucket3;
#X obj 130 343 r pulses3;
#X obj 140 374 r steps3;
#X obj 30 486 s setBucket3;
#X obj 164 512 s setBucket3;
#X msg 372 468 \; setCount3 0 \; setBucket3 0 \; \;;
#X obj 372 360 r steps3;
#X obj 371 309 r setCount3;
#X obj 311 440 s count3;
#X obj 135 543 s play2;
#X obj 114 569 s noplay2;
#X connect 0 0 9 0;
#X connect 0 0 38 0;
#X connect 1 0 8 0;
#X connect 1 0 34 0;
#X connect 2 0 13 0;
#X connect 3 0 1 0;
#X connect 4 0 0 0;
#X connect 7 0 36 0;
#X connect 8 0 7 0;
#X connect 9 0 10 0;
#X connect 10 1 40 0;
#X connect 11 0 12 0;
#X connect 11 0 2 0;
#X connect 12 0 11 1;
#X connect 13 0 14 0;
#X connect 13 0 49 0;
#X connect 14 1 15 0;
#X connect 15 0 46 0;
#X connect 16 0 14 1;
#X connect 20 0 22 0;
#X connect 22 0 27 0;
#X connect 23 0 29 0;
#X connect 23 0 44 0;
#X connect 23 1 28 0;
#X connect 23 1 24 0;
#X connect 24 0 45 0;
#X connect 25 0 23 1;
#X connect 25 0 24 1;
#X connect 25 0 26 0;
#X connect 27 0 23 0;
#X connect 27 0 30 0;
#X connect 28 0 50 0;
#X connect 29 0 51 0;
#X connect 31 0 20 0;
#X connect 32 0 11 0;
#X connect 33 0 3 0;
#X connect 35 0 7 1;
#X connect 37 0 4 0;
#X connect 39 0 10 1;
#X connect 41 0 20 1;
#X connect 42 0 27 1;
#X connect 43 0 25 0;
#X connect 47 0 16 0;
#X connect 48 0 11 1;
#X restore 419 268 pd euclid3;
#N canvas 0 23 580 640 euclid4 0;
#X obj 335 92 i;
#X obj 116 95 i;
#X obj 334 354 i;
#X obj 121 73 hsl 128 15 1 32 0 0 empty empty empty -2 -8 0 10 -262144
-1 -1 2868 1;
#X obj 340 71 hsl 128 15 1 32 0 0 empty empty empty -2 -8 0 10 -262144
-1 -1 0 1;
#X text 215 55 Steps;
#X text 431 51 Pulses;
#X obj 111 157 moses;
#X floatatom 111 128 5 0 0 0 - - -;
#X floatatom 328 124 5 0 0 0 - - -;
#X obj 328 155 moses;
#X obj 334 331 i;
#X obj 395 331 + 1;
#X floatatom 334 376 5 0 0 0 - - -;
#X obj 368 413 moses;
#X obj 395 439 bng 15 250 50 0 empty empty empty 17 7 0 10 -262144
-1 -1;
#X obj 395 382 - 1;
#X text 291 374 count;
#X text 368 156 Pulses always < steps;
#X text 150 158 Pulses always < steps;
#X obj 115 295 i;
#X text 68 320 bucket;
#X floatatom 115 321 5 0 0 0 - - -;
#X obj 114 446 moses;
#X obj 164 487 -;
#X obj 140 397 i;
#X floatatom 186 448 5 0 0 0 - - -;
#X obj 115 365 +;
#X obj 132 487 bng 15 250 50 0 empty empty empty 17 7 0 10 -262144
-1 -1;
#X obj 114 487 bng 15 250 50 0 empty empty empty 17 7 0 10 -262144
-1 -1;
#X floatatom 78 399 5 0 0 0 - - -;
#X obj 334 282 r masterTempo;
#X obj 115 247 r masterTempo;
#X obj 116 49 r setSteps4;
#X obj 151 118 s steps4;
#X obj 149 138 r pulses4;
#X obj 111 183 s setPulses4;
#X obj 130 269 r setBucket4;
#X obj 130 343 r pulses4;
#X obj 140 374 r steps4;
#X obj 30 486 s setBucket4;
#X obj 164 512 s setBucket4;
#X msg 395 466 \; setCount4 0 \; setBucket4 0 \; \;;
#X obj 395 358 r steps4;
#X obj 394 307 r setCount4;
#X obj 334 438 s count4;
#X obj 355 182 s setSteps4;
#X obj 369 134 r steps4;
#X obj 369 114 s pulses4;
#X obj 337 49 r setPulses4;
#X obj 135 543 s play3;
#X obj 115 564 s noplay3;
#X connect 0 0 9 0;
#X connect 0 0 48 0;
#X connect 1 0 8 0;
#X connect 1 0 34 0;
#X connect 2 0 13 0;
#X connect 3 0 1 0;
#X connect 4 0 0 0;
#X connect 7 0 36 0;
#X connect 8 0 7 0;
#X connect 9 0 10 0;
#X connect 10 1 46 0;
#X connect 11 0 12 0;
#X connect 11 0 2 0;
#X connect 12 0 11 1;
#X connect 13 0 14 0;
#X connect 13 0 45 0;
#X connect 14 1 15 0;
#X connect 15 0 42 0;
#X connect 16 0 14 1;
#X connect 20 0 22 0;
#X connect 22 0 27 0;
#X connect 23 0 29 0;
#X connect 23 0 40 0;
#X connect 23 1 28 0;
#X connect 23 1 24 0;
#X connect 24 0 41 0;
#X connect 25 0 23 1;
#X connect 25 0 24 1;
#X connect 25 0 26 0;
#X connect 27 0 23 0;
#X connect 27 0 30 0;
#X connect 28 0 50 0;
#X connect 29 0 51 0;
#X connect 31 0 11 0;
#X connect 32 0 20 0;
#X connect 33 0 3 0;
#X connect 35 0 7 1;
#X connect 37 0 20 1;
#X connect 38 0 27 1;
#X connect 39 0 25 0;
#X connect 43 0 16 0;
#X connect 44 0 11 1;
#X connect 47 0 10 1;
#X connect 49 0 4 0;
#X restore 419 291 pd euclid4;
#X obj 235 54 bng 15 250 50 0 empty empty empty 17 7 0 10 -262144 -1
-1;
#X obj 419 166 metro 250;
#X obj 416 93 hsl 128 15 1000 2 0 0 empty empty empty -2 -8 0 10 -262144
-1 -1 11453 1;
#X floatatom 427 115 5 0 0 0 - - -;
#X text 516 80 Tempo;
#X obj 234 31 loadbang;
#X obj 423 45 r setMasterTempo;
#X obj 418 187 s masterTempo;
#N canvas 343 242 630 490 vivian-loopbox 0;
#X obj 50 132 throw~ scope0;
#X obj 137 60 r filename0;
#X obj 50 67 bng 15 250 50 0 empty empty empty 17 7 0 10 -262144 -1
-1;
#N canvas 153 223 754 619 viv-channel0 0;
#N canvas 0 22 450 300 (subpatch) 0;
#X array buffer0 39285 float 2;
#X coords 0 1 39285 -1 200 140 1 0 0;
#X restore 194 431 graph;
#X obj 42 33 inlet;
#X obj 147 25 inlet;
#X obj 181 189 *~;
#X obj 69 355 *~;
#X obj 58 300 line~;
#X floatatom 15 479 5 0 0 0 - - -;
#X obj 148 77 * 1;
#X msg 17 254 \$1 100;
#X obj 69 422 *~ 1;
#X text 36 17 on/off;
#X text 148 8 multiple;
#X obj 147 135 * 1;
#X obj 156 105 bng 15 250 50 0 empty empty empty 17 7 0 10 -262144
-1 -1;
#X obj 70 476 outlet~;
#X obj 406 27 inlet;
#X text 404 11 filename;
#X obj 440 191 soundfiler;
#X obj 440 255 expr 44100 / $f1;
#X obj 440 219 float;
#X floatatom 440 293 5 0 0 0 - - -;
#X floatatom 363 296 5 0 0 0 - - -;
#X obj 363 329 s samples0;
#X obj 440 328 s step0;
#X obj 225 114 r samples0;
#X obj 191 35 r step0;
#X msg 439 155 read -resize \$1 buffer0;
#X obj 396 79 makefilename %s;
#X obj 395 55 symbol \$1;
#X obj 214 238 tabread4~ buffer0;
#X obj 154 54 bng 15 250 50 0 empty empty empty 17 7 0 10 -262144 -1
-1;
#X obj 192 130 bng 15 250 50 0 empty empty empty 17 7 0 10 -262144
-1 -1;
#X obj 147 160 phasor~;
#X obj 5 33 inlet;
#X msg 5 54 0;
#X msg 42 54 1;
#X connect 1 0 35 0;
#X connect 2 0 7 0;
#X connect 3 0 29 0;
#X connect 4 0 9 0;
#X connect 5 0 4 0;
#X connect 7 0 12 0;
#X connect 8 0 5 0;
#X connect 8 0 6 0;
#X connect 9 0 14 0;
#X connect 12 0 32 0;
#X connect 13 0 12 0;
#X connect 15 0 28 0;
#X connect 17 0 19 0;
#X connect 17 0 21 0;
#X connect 18 0 20 0;
#X connect 19 0 18 0;
#X connect 20 0 23 0;
#X connect 21 0 22 0;
#X connect 24 0 3 1;
#X connect 24 0 31 0;
#X connect 25 0 7 1;
#X connect 25 0 30 0;
#X connect 26 0 17 0;
#X connect 27 0 26 0;
#X connect 28 0 27 0;
#X connect 29 0 4 1;
#X connect 30 0 7 0;
#X connect 32 0 3 0;
#X connect 33 0 34 0;
#X connect 34 0 8 0;
#X connect 35 0 8 0;
#X restore 50 102 pd viv-channel0;
#X obj 224 72 bng 15 250 50 0 empty empty empty 17 7 0 10 -262144 -1
-1;
#X obj 407 77 bng 15 250 50 0 empty empty empty 17 7 0 10 -262144 -1
-1;
#X obj 50 211 bng 15 250 50 0 empty empty empty 17 7 0 10 -262144 -1
-1;
#X obj 310 63 r filename1;
#N canvas 557 219 883 623 viv-channel1 0;
#N canvas 0 22 450 300 (subpatch) 0;
#X array buffer1 39285 float 2;
#X coords 0 1 39285 -1 200 140 1 0 0;
#X restore 600 387 graph;
#X obj 65 34 inlet;
#X obj 147 25 inlet;
#X obj 181 189 *~;
#X obj 69 355 *~;
#X obj 58 300 line~;
#X floatatom 15 479 5 0 0 0 - - -;
#X obj 148 77 * 1;
#X msg 17 254 \$1 100;
#X obj 69 422 *~ 1;
#X text 59 18 on/off;
#X text 148 8 multiple;
#X obj 147 135 * 1;
#X obj 156 105 bng 15 250 50 0 empty empty empty 17 7 0 10 -262144
-1 -1;
#X obj 70 476 outlet~;
#X obj 321 27 inlet;
#X text 319 11 filename;
#X obj 440 191 soundfiler;
#X obj 440 255 expr 44100 / $f1;
#X obj 440 219 float;
#X floatatom 440 293 5 0 0 0 - - -;
#X floatatom 363 296 5 0 0 0 - - -;
#X obj 396 79 makefilename %s;
#X obj 395 55 symbol \$1;
#X obj 236 116 r samples1;
#X obj 214 238 tabread4~ buffer1;
#X obj 363 329 s samples1;
#X obj 440 328 s step1;
#X msg 439 155 read -resize \$1 buffer1;
#X obj 187 35 r step1;
#X obj 157 52 bng 15 250 50 0 empty empty empty 17 7 0 10 -262144 -1
-1;
#X obj 202 137 bng 15 250 50 0 empty empty empty 17 7 0 10 -262144
-1 -1;
#X obj 148 160 phasor~;
#X msg 65 60 1;
#X obj 27 35 inlet;
#X text 21 19 on/off;
#X msg 23 64 0;
#X connect 1 0 33 0;
#X connect 2 0 7 0;
#X connect 3 0 25 0;
#X connect 4 0 9 0;
#X connect 5 0 4 0;
#X connect 7 0 12 0;
#X connect 8 0 5 0;
#X connect 8 0 6 0;
#X connect 9 0 14 0;
#X connect 12 0 32 0;
#X connect 13 0 12 0;
#X connect 15 0 23 0;
#X connect 17 0 19 0;
#X connect 17 0 21 0;
#X connect 18 0 20 0;
#X connect 19 0 18 0;
#X connect 20 0 27 0;
#X connect 21 0 26 0;
#X connect 22 0 28 0;
#X connect 23 0 22 0;
#X connect 24 0 3 1;
#X connect 24 0 31 0;
#X connect 25 0 4 1;
#X connect 28 0 17 0;
#X connect 29 0 7 1;
#X connect 29 0 30 0;
#X connect 30 0 7 0;
#X connect 32 0 3 0;
#X connect 33 0 8 0;
#X connect 34 0 36 0;
#X connect 36 0 8 0;
#X restore 222 105 pd viv-channel1;
#X obj 493 68 r filename2;
#N canvas 408 72 948 640 viv-channel2 0;
#N canvas 0 22 450 300 (subpatch) 0;
#X array buffer2 39285 float 2;
#X coords 0 1 39285 -1 200 140 1 0 0;
#X restore 658 221 graph;
#X obj 56 31 inlet;
#X obj 147 25 inlet;
#X obj 181 189 *~;
#X obj 69 355 *~;
#X obj 58 300 line~;
#X floatatom 15 479 5 0 0 0 - - -;
#X obj 148 77 * 1;
#X obj 69 422 *~ 1;
#X text 50 15 on/off;
#X text 148 8 multiple;
#X obj 147 135 * 1;
#X obj 156 105 bng 15 250 50 0 empty empty empty 17 7 0 10 -262144
-1 -1;
#X obj 70 476 outlet~;
#X obj 321 27 inlet;
#X text 319 11 filename;
#X obj 440 191 soundfiler;
#X obj 440 255 expr 44100 / $f1;
#X obj 440 219 float;
#X floatatom 440 293 5 0 0 0 - - -;
#X floatatom 363 296 5 0 0 0 - - -;
#X obj 396 79 makefilename %s;
#X obj 395 55 symbol \$1;
#X obj 232 116 r samples2;
#X obj 214 238 tabread4~ buffer2;
#X obj 363 329 s samples2;
#X obj 440 328 s step2;
#X msg 439 155 read -resize \$1 buffer2;
#X obj 193 30 r step2;
#X obj 159 51 bng 15 250 50 0 empty empty empty 17 7 0 10 -262144 -1
-1;
#X obj 201 137 bng 15 250 50 0 empty empty empty 17 7 0 10 -262144
-1 -1;
#X obj 148 160 phasor~;
#X msg 17 254 \$1 100;
#X msg 56 52 1;
#X obj 15 32 inlet;
#X text 9 16 on/off;
#X msg 15 53 0;
#X connect 1 0 33 0;
#X connect 2 0 7 0;
#X connect 3 0 24 0;
#X connect 4 0 8 0;
#X connect 5 0 4 0;
#X connect 7 0 11 0;
#X connect 8 0 13 0;
#X connect 11 0 31 0;
#X connect 12 0 11 0;
#X connect 14 0 22 0;
#X connect 16 0 18 0;
#X connect 16 0 20 0;
#X connect 17 0 19 0;
#X connect 18 0 17 0;
#X connect 19 0 26 0;
#X connect 20 0 25 0;
#X connect 21 0 27 0;
#X connect 22 0 21 0;
#X connect 23 0 3 1;
#X connect 23 0 30 0;
#X connect 24 0 4 1;
#X connect 27 0 16 0;
#X connect 28 0 7 1;
#X connect 28 0 29 0;
#X connect 29 0 7 0;
#X connect 31 0 3 0;
#X connect 32 0 5 0;
#X connect 32 0 6 0;
#X connect 33 0 32 0;
#X connect 34 0 36 0;
#X connect 36 0 32 0;
#X restore 406 110 pd viv-channel2;
#X obj 136 202 r filename3;
#X obj 406 140 throw~ scope2;
#N canvas 93 225 1296 617 viv-channel3 0;
#N canvas 0 23 450 300 (subpatch) 0;
#X array buffer3 39285 float 2;
#X coords 0 1 39285 -1 200 140 1 0 0;
#X restore 880 359 graph;
#X obj 16 31 inlet;
#X obj 147 25 inlet;
#X obj 181 189 *~;
#X obj 69 355 *~;
#X obj 58 300 line~;
#X floatatom 15 479 5 0 0 0 - - -;
#X obj 148 77 * 1;
#X msg 17 254 \$1 100;
#X obj 69 422 *~ 1;
#X text 10 15 on/off;
#X text 148 8 multiple;
#X obj 147 135 * 1;
#X obj 156 105 bng 15 250 50 0 empty empty empty 17 7 0 10 -262144
-1 -1;
#X obj 70 476 outlet~;
#X obj 321 27 inlet;
#X text 319 11 filename;
#X obj 440 191 soundfiler;
#X obj 440 255 expr 44100 / $f1;
#X obj 440 219 float;
#X floatatom 440 293 5 0 0 0 - - -;
#X floatatom 363 296 5 0 0 0 - - -;
#X obj 396 79 makefilename %s;
#X obj 395 55 symbol \$1;
#X obj 191 33 r step3;
#X obj 214 238 tabread4~ buffer3;
#X obj 235 118 r samples3;
#X msg 439 155 read -resize \$1 buffer3;
#X obj 440 328 s step3;
#X obj 363 329 s samples3;
#X obj 156 51 bng 15 250 50 0 empty empty empty 17 7 0 10 -262144 -1
-1;
#X obj 201 144 bng 15 250 50 0 empty empty empty 17 7 0 10 -262144
-1 -1;
#X msg 16 52 0;
#X obj 60 31 inlet;
#X text 54 15 on/off;
#X msg 59 52 1;
#X obj 148 160 phasor~;
#X connect 1 0 32 0;
#X connect 2 0 7 0;
#X connect 3 0 25 0;
#X connect 4 0 9 0;
#X connect 5 0 4 0;
#X connect 7 0 12 0;
#X connect 8 0 5 0;
#X connect 8 0 6 0;
#X connect 9 0 14 0;
#X connect 12 0 36 0;
#X connect 13 0 12 0;
#X connect 15 0 23 0;
#X connect 17 0 19 0;
#X connect 17 0 21 0;
#X connect 18 0 20 0;
#X connect 19 0 18 0;
#X connect 20 0 28 0;
#X connect 21 0 29 0;
#X connect 22 0 27 0;
#X connect 23 0 22 0;
#X connect 24 0 7 1;
#X connect 24 0 30 0;
#X connect 25 0 4 1;
#X connect 26 0 3 1;
#X connect 26 0 31 0;
#X connect 27 0 17 0;
#X connect 30 0 7 0;
#X connect 32 0 8 0;
#X connect 33 0 35 0;
#X connect 35 0 8 0;
#X connect 36 0 3 0;
#X restore 49 244 pd viv-channel3;
#X obj 223 135 throw~ scope1;
#X obj 51 32 r play0;
#X obj 224 35 r play1;
#X obj 407 40 r play2;
#X obj 50 174 r play3;
#X obj 103 33 r control0;
#X obj 280 36 r control1;
#X obj 107 174 r control3;
#X obj 465 33 r control2;
#X obj 14 13 r noplay0;
#X obj 16 66 bng 15 250 50 0 empty empty empty 17 7 0 10 -262144 -1
-1;
#X obj 209 8 r noplay1;
#X obj 201 35 bng 15 250 50 0 empty empty empty 17 7 0 10 -262144 -1
-1;
#X obj 390 15 r noplay2;
#X obj 20 153 r noplay3;
#X obj 387 44 bng 15 250 50 0 empty empty empty 17 7 0 10 -262144 -1
-1;
#X obj 23 193 bng 15 250 50 0 empty empty empty 17 7 0 10 -262144 -1
-1;
#X obj 49 274 throw~ scope3;
#X obj 96 59 * 4;
#X obj 277 69 * 4;
#X obj 456 68 * 4;
#X obj 101 203 * 4;
#X connect 1 0 3 3;
#X connect 2 0 3 1;
#X connect 3 0 0 0;
#X connect 4 0 8 1;
#X connect 5 0 10 1;
#X connect 6 0 13 1;
#X connect 7 0 8 3;
#X connect 8 0 14 0;
#X connect 9 0 10 3;
#X connect 10 0 12 0;
#X connect 11 0 13 3;
#X connect 13 0 31 0;
#X connect 15 0 2 0;
#X connect 16 0 4 0;
#X connect 17 0 5 0;
#X connect 18 0 6 0;
#X connect 19 0 32 0;
#X connect 20 0 33 0;
#X connect 21 0 35 0;
#X connect 22 0 34 0;
#X connect 23 0 24 0;
#X connect 24 0 3 0;
#X connect 25 0 26 0;
#X connect 26 0 8 0;
#X connect 27 0 29 0;
#X connect 28 0 30 0;
#X connect 29 0 10 0;
#X connect 30 0 13 0;
#X connect 32 0 3 2;
#X connect 33 0 8 2;
#X connect 34 0 10 2;
#X connect 35 0 13 2;
#X restore 419 316 pd vivian-loopbox;
#N canvas 261 37 1004 695 output-stage 0;
#X obj 267 203 r masterVolume;
#N canvas 173 284 381 409 channel0 0;
#X obj 96 15 catch~ audioOut0;
#X obj 46 328 outlet~;
#X obj 217 327 outlet~;
#X obj 96 130 r pan0;
#X obj 245 65 r screenW;
#X obj 209 40 loadbang;
#X obj 215 185 /;
#X obj 98 216 -;
#X obj 98 250 /;
#X floatatom 98 280 5 0 0 0 - - -;
#X floatatom 249 274 5 0 0 0 - - -;
#X obj 47 279 *~;
#X obj 217 273 *~;
#X obj 210 108 f;
#X obj 79 186 bng 15 250 50 0 empty empty empty 17 7 0 10 -262144 -1
-1;
#X msg 210 79 320;
#X obj 343 122 vsl 15 128 0 320 0 0 pan0 empty empty 0 -9 0 10 -262144
-1 -1 0 1;
#X connect 0 0 11 0;
#X connect 0 0 12 0;
#X connect 3 0 7 1;
#X connect 3 0 14 0;
#X connect 3 0 6 0;
#X connect 4 0 13 0;
#X connect 5 0 15 0;
#X connect 6 0 10 0;
#X connect 6 0 12 1;
#X connect 7 0 8 0;
#X connect 8 0 11 1;
#X connect 8 0 9 0;
#X connect 11 0 1 0;
#X connect 12 0 2 0;
#X connect 13 0 6 1;
#X connect 13 0 7 0;
#X connect 13 0 8 1;
#X connect 14 0 7 0;
#X connect 15 0 13 0;
#X restore 42 55 pd channel0;
#X obj 215 217 +~;
#X obj 440 216 +~;
#N canvas 349 52 463 461 channel1 0;
#X obj 72 361 outlet~;
#X obj 243 360 outlet~;
#X obj 271 98 r screenW;
#X msg 236 112 320;
#X obj 235 73 loadbang;
#X obj 241 218 /;
#X obj 124 249 -;
#X obj 124 283 /;
#X floatatom 124 313 5 0 0 0 - - -;
#X floatatom 275 307 5 0 0 0 - - -;
#X obj 73 312 *~;
#X obj 243 306 *~;
#X obj 236 141 f;
#X obj 105 219 bng 15 250 50 0 empty empty empty 17 7 0 10 -262144
-1 -1;
#X obj 122 48 catch~ audioOut1;
#X obj 122 163 r pan1;
#X connect 2 0 12 0;
#X connect 3 0 12 0;
#X connect 4 0 3 0;
#X connect 5 0 9 0;
#X connect 5 0 11 1;
#X connect 6 0 7 0;
#X connect 7 0 10 1;
#X connect 7 0 8 0;
#X connect 10 0 0 0;
#X connect 11 0 1 0;
#X connect 12 0 5 1;
#X connect 12 0 6 0;
#X connect 12 0 7 1;
#X connect 13 0 6 0;
#X connect 14 0 10 0;
#X connect 14 0 11 0;
#X connect 15 0 6 1;
#X connect 15 0 13 0;
#X connect 15 0 5 0;
#X restore 118 55 pd channel1;
#N canvas 349 52 556 497 channel2 0;
#X obj 125 373 outlet~;
#X obj 296 372 outlet~;
#X obj 324 110 r screenW;
#X msg 289 124 320;
#X obj 288 85 loadbang;
#X obj 294 230 /;
#X obj 177 261 -;
#X obj 177 295 /;
#X floatatom 177 325 5 0 0 0 - - -;
#X floatatom 328 319 5 0 0 0 - - -;
#X obj 126 324 *~;
#X obj 296 318 *~;
#X obj 289 153 f;
#X obj 158 231 bng 15 250 50 0 empty empty empty 17 7 0 10 -262144
-1 -1;
#X obj 175 60 catch~ audioOut2;
#X obj 175 175 r pan2;
#X connect 2 0 12 0;
#X connect 3 0 12 0;
#X connect 4 0 3 0;
#X connect 5 0 9 0;
#X connect 5 0 11 1;
#X connect 6 0 7 0;
#X connect 7 0 10 1;
#X connect 7 0 8 0;
#X connect 10 0 0 0;
#X connect 11 0 1 0;
#X connect 12 0 5 1;
#X connect 12 0 6 0;
#X connect 12 0 7 1;
#X connect 13 0 6 0;
#X connect 14 0 10 0;
#X connect 14 0 11 0;
#X connect 15 0 6 1;
#X connect 15 0 13 0;
#X connect 15 0 5 0;
#X restore 327 55 pd channel2;
#N canvas 349 52 538 467 channel3 0;
#X obj 132 366 outlet~;
#X obj 303 365 outlet~;
#X obj 331 103 r screenW;
#X msg 296 117 320;
#X obj 295 78 loadbang;
#X obj 301 223 /;
#X obj 184 254 -;
#X obj 184 288 /;
#X floatatom 184 318 5 0 0 0 - - -;
#X floatatom 335 312 5 0 0 0 - - -;
#X obj 133 317 *~;
#X obj 303 311 *~;
#X obj 296 146 f;
#X obj 165 224 bng 15 250 50 0 empty empty empty 17 7 0 10 -262144
-1 -1;
#X obj 182 53 catch~ audioOut3;
#X obj 182 168 r pan3;
#X connect 2 0 12 0;
#X connect 3 0 12 0;
#X connect 4 0 3 0;
#X connect 5 0 9 0;
#X connect 5 0 11 1;
#X connect 6 0 7 0;
#X connect 7 0 10 1;
#X connect 7 0 8 0;
#X connect 10 0 0 0;
#X connect 11 0 1 0;
#X connect 12 0 5 1;
#X connect 12 0 6 0;
#X connect 12 0 7 1;
#X connect 13 0 6 0;
#X connect 14 0 10 0;
#X connect 14 0 11 0;
#X connect 15 0 6 1;
#X connect 15 0 13 0;
#X connect 15 0 5 0;
#X restore 423 52 pd channel3;
#X obj 245 353 *~;
#X obj 327 346 *~;
#X obj 301 470 freeverb~;
#X msg 403 421 wet \$1;
#X msg 451 421 dry \$1;
#X obj 401 369 hsl 128 15 0 1 0 0 empty empty empty -2 -8 0 10 -262144
-1 -1 6350 1;
#N canvas 1 80 450 300 inv 0;
#X obj 154 69 inlet;
#X obj 154 179 outlet;
#X msg 154 124 1;
#X obj 154 97 t b f;
#X obj 154 151 -;
#X connect 0 0 3 0;
#X connect 2 0 4 0;
#X connect 3 0 2 0;
#X connect 3 1 4 1;
#X connect 4 0 1 0;
#X restore 451 394 pd inv;
#X floatatom 509 419 5 0 0 0 - - -;
#X text 394 350 dry;
#X text 519 349 wet;
#X floatatom 410 395 5 0 0 0 - - -;
#X obj 305 646 dac~;
#X obj 406 256 loadbang;
#X obj 475 283 abs;
#X obj 760 215 print, f 8;
#X obj 474 308 / 7;
#X obj 431 284 t f b;
#X obj 834 129 vsl 15 128 0 7 0 0 tempo8 empty empty 0 -9 0 10 -262144
-1 -1 0 1;
#X floatatom 406 310 5 0 0 0 - - -;
#X msg 789 575 7;
#X obj 789 604 s tempo8;
#X obj 289 615 hip~ 1;
#X obj 344 614 hip~ 1;
#X obj 439 349 line 0 200;
#X obj 406 328 pack f 500;
#X obj 265 245 pack f 300;
#X obj 266 272 line;
#X obj 335 239 pack f 300;
#X obj 336 266 line;
#X msg 397 284 0;
#X text 395 456 Playback Preview;
#X obj 724 331 s previewFilename;
#X msg 722 290 aisha.wav;
#X obj 728 420 s masterVolume;
#X obj 725 475 s togglePreview;
#X obj 708 514 s previewTempo;
#X msg 709 442 1;
#X msg 714 369 1;
#X obj 477 238 r control13;
#X obj 197 573 throw~ scope4;
#X floatatom 250 292 5 0 0 0 - - -;
#X obj 405 563 throw~ scope5;
#X msg 159 234 0.4;
#X obj 111 196 loadbang;
#X connect 0 0 32 0;
#X connect 0 0 34 0;
#X connect 1 0 2 0;
#X connect 1 1 3 0;
#X connect 2 0 7 0;
#X connect 3 0 8 0;
#X connect 4 0 2 1;
#X connect 4 1 3 1;
#X connect 5 0 2 1;
#X connect 5 1 3 1;
#X connect 6 0 2 1;
#X connect 6 1 3 1;
#X connect 7 0 9 0;
#X connect 8 0 9 1;
#X connect 9 0 28 0;
#X connect 9 0 46 0;
#X connect 9 1 29 0;
#X connect 9 1 48 0;
#X connect 10 0 9 0;
#X connect 11 0 9 0;
#X connect 12 0 10 0;
#X connect 12 0 13 0;
#X connect 12 0 17 0;
#X connect 13 0 11 0;
#X connect 13 0 14 0;
#X connect 19 0 36 0;
#X connect 20 0 22 0;
#X connect 22 0 23 0;
#X connect 23 0 25 0;
#X connect 23 1 25 0;
#X connect 25 0 31 0;
#X connect 26 0 27 0;
#X connect 28 0 18 0;
#X connect 29 0 18 1;
#X connect 30 0 12 0;
#X connect 31 0 30 0;
#X connect 32 0 33 0;
#X connect 33 0 7 1;
#X connect 34 0 35 0;
#X connect 35 0 8 1;
#X connect 36 0 12 0;
#X connect 39 0 38 0;
#X connect 43 0 41 0;
#X connect 43 0 42 0;
#X connect 44 0 40 0;
#X connect 45 0 20 0;
#X connect 47 0 7 1;
#X connect 47 0 8 1;
#X connect 49 0 47 0;
#X connect 50 0 49 0;
#X restore 418 342 pd output-stage;
#N canvas 555 33 1177 691 scopes 0;
#X obj 48 73 clip~ -1 1;
#X obj 80 102 loadbang;
#X obj 85 152 metro 100;
#X text 84 124 1;
#X msg 84 124 1;
#N canvas 0 22 450 300 (subpatch) 0;
#X array scope0 256 float 2;
#X coords 0 1 256 -1 200 140 1 0 0;
#X restore 164 52 graph;
#X obj 53 296 clip~ -1 1;
#X obj 85 325 loadbang;
#X obj 90 375 metro 100;
#X text 89 347 1;
#X msg 89 347 1;
#N canvas 0 22 450 300 (subpatch) 0;
#X array scope1 256 float 2;
#X coords 0 1 256 -1 200 140 1 0 0;
#X restore 168 293 graph;
#X obj 56 522 clip~ -1 1;
#X obj 88 551 loadbang;
#X obj 93 601 metro 100;
#X text 92 573 1;
#X msg 92 573 1;
#N canvas 0 22 450 300 (subpatch) 0;
#X array scope2 256 float 2;
#X coords 0 1 256 -1 200 140 1 0 0;
#X restore 171 519 graph;
#X obj 426 68 clip~ -1 1;
#X obj 458 97 loadbang;
#X obj 463 147 metro 100;
#X text 462 119 1;
#X msg 462 119 1;
#N canvas 0 23 450 300 (subpatch) 0;
#X array scope3 256 float 2;
#X coords 0 1 256 -1 200 140 1 0 0;
#X restore 541 65 graph;
#X obj 26 13 catch~ scope0;
#X obj 31 236 catch~ scope1;
#X obj 34 462 catch~ scope2;
#X obj 54 625 tabwrite~ scope2;
#X obj 424 171 tabwrite~ scope3;
#X obj 46 176 tabwrite~ scope0;
#X obj 51 399 tabwrite~ scope1;
#X obj 31 208 throw~ audioOut0;
#X obj 36 431 throw~ audioOut1;
#X obj 39 657 throw~ audioOut2;
#X obj 409 203 throw~ audioOut3;
#X obj 445 336 clip~ -1 1;
#X obj 477 365 loadbang;
#X obj 482 415 metro 100;
#X text 481 387 1;
#X msg 481 387 1;
#X obj 443 439 tabwrite~ scope4;
#X obj 423 276 catch~ scope4;
#N canvas 0 23 450 300 (subpatch) 0;
#X array scope4 256 float 2;
#X coords 0 1 256 -1 200 140 1 0 0;
#X restore 571 314 graph;
#X obj 404 8 catch~ scope3;
#X obj 463 531 clip~ -1 1;
#X obj 495 560 loadbang;
#X obj 500 610 metro 100;
#X text 499 582 1;
#X msg 499 582 1;
#N canvas 0 23 450 300 (subpatch) 0;
#X array scope5 256 float 2;
#X coords 0 1 256 -1 200 140 1 0 0;
#X restore 589 509 graph;
#X obj 441 471 catch~ scope5;
#X obj 461 634 tabwrite~ scope5;
#X connect 0 0 29 0;
#X connect 1 0 4 0;
#X connect 2 0 29 0;
#X connect 4 0 2 0;
#X connect 6 0 30 0;
#X connect 7 0 10 0;
#X connect 8 0 30 0;
#X connect 10 0 8 0;
#X connect 12 0 27 0;
#X connect 13 0 16 0;
#X connect 14 0 27 0;
#X connect 16 0 14 0;
#X connect 18 0 28 0;
#X connect 19 0 22 0;
#X connect 20 0 28 0;
#X connect 22 0 20 0;
#X connect 24 0 0 0;
#X connect 24 0 31 0;
#X connect 25 0 6 0;
#X connect 25 0 32 0;
#X connect 26 0 12 0;
#X connect 26 0 33 0;
#X connect 35 0 40 0;
#X connect 36 0 39 0;
#X connect 37 0 40 0;
#X connect 39 0 37 0;
#X connect 41 0 35 0;
#X connect 43 0 18 0;
#X connect 43 0 34 0;
#X connect 44 0 51 0;
#X connect 45 0 48 0;
#X connect 46 0 51 0;
#X connect 48 0 46 0;
#X connect 50 0 44 0;
#X restore 418 367 pd scopes;
#X obj 580 72 hsl 128 15 1 32 0 0 empty empty empty -2 -8 0 10 -262144
-1 -1 5500 1;
#X obj 722 70 hsl 128 15 1 32 0 0 empty empty empty -2 -8 0 10 -262144
-1 -1 0 1;
#X text 675 56 Steps;
#X text 813 50 Pulses;
#X obj 577 102 s setSteps1;
#X obj 719 98 s setPulses1;
#X obj 579 183 hsl 128 15 1 32 0 0 empty empty empty -2 -8 0 10 -262144
-1 -1 0 1;
#X obj 723 182 hsl 128 15 1 32 0 0 empty empty empty -2 -8 0 10 -262144
-1 -1 0 1;
#X text 673 161 Steps;
#X text 814 161 Pulses;
#X obj 579 298 hsl 128 15 1 32 0 0 empty empty empty -2 -8 0 10 -262144
-1 -1 0 1;
#X obj 723 297 hsl 128 15 1 32 0 0 empty empty empty -2 -8 0 10 -262144
-1 -1 0 1;
#X text 674 282 Steps;
#X text 814 277 Pulses;
#X obj 580 416 hsl 128 15 1 32 0 0 empty empty empty -2 -8 0 10 -262144
-1 -1 0 1;
#X obj 724 415 hsl 128 15 1 32 0 0 empty empty empty -2 -8 0 10 -262144
-1 -1 0 1;
#X text 675 400 Steps;
#X text 815 395 Pulses;
#X obj 576 213 s setSteps2;
#X obj 576 328 s setSteps3;
#X obj 577 446 s setSteps4;
#X obj 721 443 s setPulses4;
#X obj 720 325 s setPulses3;
#X obj 720 210 s setPulses2;
#X obj 645 34 i;
#X obj 716 14 r control4;
#X obj 790 33 i;
#X obj 573 11 r control5;
#X obj 658 261 i;
#X obj 812 257 i;
#X obj 626 153 i;
#X obj 790 142 i;
#X obj 716 123 r control6;
#X obj 577 129 r control7;
#X obj 720 242 r control8;
#X obj 576 245 r control9;
#X obj 667 376 i;
#X obj 813 374 i;
#X obj 722 358 r control10;
#X obj 578 361 r control11;
#X obj 372 18 r control12;
#X obj 653 102 print;
#X obj 813 98 print;
#X obj 375 47 * -100;
#X obj 388 70 + 100;
#X msg 236 157 \; setMasterTempo 100 \; setCount1 0 \; setBucket1 0
\; setSteps1 8 \; setPulses1 2 \; setCount2 0 \; setBucket2 0 \; setSteps2
8 \; setPulses2 3 \; setCount3 0 \; setBucket3 0 \; setSteps3 8 \;
setPulses3 4 \; setCount4 0 \; setBucket4 0 \; setSteps4 8 \; setPulses4
1 \; \;;
#X obj 575 35 * 16;
#X obj 716 36 * 16;
#X obj 577 160 * 16;
#X obj 721 157 * 16;
#X obj 576 273 * 16;
#X obj 720 273 * 16;
#X obj 578 389 * 16;
#X obj 722 389 * 16;
#X obj 228 450 hsl 128 15 -4 4 0 0 empty empty empty -2 -8 0 10 -262144
-1 -1 7200 1;
#X obj 238 479 s control0;
#X obj 228 507 hsl 128 15 -4 4 0 0 empty empty empty -2 -8 0 10 -262144
-1 -1 7000 1;
#X obj 239 536 s control1;
#X obj 224 564 hsl 128 15 -4 4 0 0 empty empty empty -2 -8 0 10 -262144
-1 -1 7400 1;
#X obj 235 593 s control2;
#X obj 229 620 hsl 128 15 -4 4 0 0 empty empty empty -2 -8 0 10 -262144
-1 -1 6600 1;
#X obj 240 649 s control3;
#X msg 22 64 \; masterVolume 1 \; \; pan0 0 \; pan1 108 \; pan2 214
\; pan3 320 \; \;;
#X obj 425 428 r control12;
#X obj 450 496 route 0 1 2 3 4 5 6 7;
#X obj 406 403 hsl 128 15 0 1 0 0 empty empty empty -2 -8 0 10 -262144
-1 -1 0 1;
#X obj 411 472 i;
#X floatatom 398 499 5 0 0 0 - - -;
#X obj 448 465 change;
#X msg 465 542 \; filename0 trumpet.wav \; filename1 trumpet.wav \;
filename2 trumpet.wav \; filename3 trumpet.wav \; \;;
#X msg 439 618 \; filename0 drum2.wav \; filename1 drum2.wav \; filename2
drum2.wav \; filename3 drum2.wav \; \;;
#X msg 602 617 \; filename0 tuba.wav \; filename1 tuba.wav \; filename2
tuba.wav \; filename3 tuba.wav \; \;;
#X msg 628 541 \; filename0 gong.wav \; filename1 gong.wav \; filename2
gong.wav \; filename3 gong.wav \; \;;
#X msg 775 541 \; filename0 drum1.wav \; filename1 drum1.wav \; filename2
drum1.wav \; filename3 drum1.wav \; \;;
#X msg 749 617 \; filename0 clarinet.wav \; filename1 clarinet.wav
\; filename2 clarinet.wav \; filename3 clarinet.wav \; \;;
#X msg 894 617 \; filename0 train.wav \; filename1 train.wav \; filename2
train.wav \; filename3 train.wav \; \;;
#X msg 33 201 \; filename0 drum2.wav \; filename1 drum2.wav \; filename2
drum2.wav \; filename3 drum2.wav \; \;;
#X obj 391 555 print;
#X obj 415 450 * 9;
#X msg 114 292 \; control0 0 \; control1 0 \; control2 0 \; control3
0 \; control12 0 \; control13 3.5 \; \;;
#X msg 920 541 \; filename0 cello5.wav \; filename1 cello1.wav \; filename2
cello2.wav \; filename3 cello3.wav \; \;;
#X connect 4 0 5 0;
#X connect 4 0 60 0;
#X connect 4 0 94 0;
#X connect 4 0 77 0;
#X connect 4 0 91 0;
#X connect 5 0 11 0;
#X connect 6 0 7 0;
#X connect 6 0 5 0;
#X connect 9 0 4 0;
#X connect 10 0 6 0;
#X connect 15 0 19 0;
#X connect 15 0 56 0;
#X connect 16 0 20 0;
#X connect 16 0 57 0;
#X connect 21 0 33 0;
#X connect 22 0 38 0;
#X connect 25 0 34 0;
#X connect 26 0 37 0;
#X connect 29 0 35 0;
#X connect 30 0 36 0;
#X connect 39 0 15 0;
#X connect 40 0 62 0;
#X connect 41 0 16 0;
#X connect 42 0 61 0;
#X connect 43 0 25 0;
#X connect 44 0 26 0;
#X connect 45 0 21 0;
#X connect 46 0 22 0;
#X connect 47 0 64 0;
#X connect 48 0 63 0;
#X connect 49 0 66 0;
#X connect 50 0 65 0;
#X connect 51 0 29 0;
#X connect 52 0 30 0;
#X connect 53 0 68 0;
#X connect 54 0 67 0;
#X connect 55 0 58 0;
#X connect 58 0 59 0;
#X connect 61 0 39 0;
#X connect 62 0 41 0;
#X connect 63 0 45 0;
#X connect 64 0 46 0;
#X connect 65 0 43 0;
#X connect 66 0 44 0;
#X connect 67 0 51 0;
#X connect 68 0 52 0;
#X connect 69 0 70 0;
#X connect 71 0 72 0;
#X connect 73 0 74 0;
#X connect 75 0 76 0;
#X connect 78 0 93 0;
#X connect 79 0 85 0;
#X connect 79 1 84 0;
#X connect 79 2 86 0;
#X connect 79 3 87 0;
#X connect 79 4 89 0;
#X connect 79 5 88 0;
#X connect 79 6 90 0;
#X connect 79 7 95 0;
#X connect 80 0 93 0;
#X connect 81 0 82 0;
#X connect 82 0 83 0;
#X connect 82 0 92 0;
#X connect 83 0 79 0;
#X connect 93 0 81 0;
