#N canvas 158 70 1119 718 10;
#X obj 181 553 dac~;
#X obj 747 252 clip~ -1 1;
#X obj 779 281 loadbang;
#X obj 784 331 metro 100;
#X text 783 303 1;
#X msg 783 303 1;
#N canvas 0 22 450 300 (subpatch) 0;
#X array scope0 256 float 2;
#X coords 0 1 256 -1 200 140 1 0 0;
#X restore 863 231 graph;
#X obj 725 192 catch~ scope0;
#X obj 745 355 tabwrite~ scope0;
#X obj 218 549 throw~ scope0;
#X obj 259 218 phasor~;
#X obj 292 247 *~;
#X obj 180 413 *~;
#X obj 169 358 line~;
#X floatatom 126 537 5 0 0 0 - - -;
#X obj 259 135 * 1;
#X msg 128 312 \$1 100;
#X text 74 76 on/off;
#X text 259 66 multiple;
#X text 188 67 vol adj;
#X obj 258 193 * 1;
#X text 425 191 filename;
#X obj 557 330 soundfiler;
#X obj 557 394 expr 44100 / $f1;
#X obj 557 358 float;
#X floatatom 557 432 5 0 0 0 - - -;
#X floatatom 480 435 5 0 0 0 - - -;
#X obj 480 468 s samples0;
#X obj 557 467 s step0;
#X obj 336 172 r samples0;
#X obj 302 93 r step0;
#X msg 556 294 read -resize \$1 buffer0;
#X obj 513 218 makefilename %s;
#X obj 512 194 symbol \$1;
#X obj 325 296 tabread4~ buffer0;
#X obj 265 112 bng 15 250 50 0 empty empty empty 17 7 0 10 -262144
-1 -1;
#X obj 303 188 bng 15 250 50 0 empty empty empty 17 7 0 10 -262144
-1 -1;
#X msg 64 94 1;
#X obj 180 480 *~ 1;
#N canvas 0 22 450 300 (subpatch) 0;
#X array buffer0 169214 float 2;
#X coords 0 1 169214 -1 200 140 1 0 0;
#X restore 861 59 graph;
#X obj 33 29 bng 15 250 50 0 empty empty empty 17 7 0 10 -262144 -1
-1;
#X obj 32 7 loadbang;
#X obj 433 15 random 6;
#X floatatom 437 37 5 0 0 0 - - -;
#X obj 435 59 route 0 1 2 3 4 5;
#X msg 415 101 sample0.wav;
#X msg 447 121 sample1.wav;
#X msg 502 100 sample2.wav;
#X msg 534 120 sample3.wav;
#X msg 587 98 sample4.wav;
#X msg 619 118 sample5.wav;
#X msg 253 90 1;
#X msg 178 91 0.3;
#X connect 1 0 8 0;
#X connect 2 0 5 0;
#X connect 3 0 8 0;
#X connect 5 0 3 0;
#X connect 7 0 1 0;
#X connect 10 0 11 0;
#X connect 11 0 34 0;
#X connect 12 0 38 0;
#X connect 13 0 12 0;
#X connect 15 0 20 0;
#X connect 16 0 13 0;
#X connect 16 0 14 0;
#X connect 20 0 10 0;
#X connect 22 0 24 0;
#X connect 22 0 26 0;
#X connect 23 0 25 0;
#X connect 24 0 23 0;
#X connect 25 0 28 0;
#X connect 26 0 27 0;
#X connect 29 0 11 1;
#X connect 29 0 36 0;
#X connect 30 0 15 1;
#X connect 30 0 35 0;
#X connect 31 0 22 0;
#X connect 32 0 31 0;
#X connect 33 0 32 0;
#X connect 34 0 12 1;
#X connect 35 0 15 0;
#X connect 37 0 16 0;
#X connect 38 0 0 0;
#X connect 38 0 0 1;
#X connect 38 0 9 0;
#X connect 40 0 37 0;
#X connect 40 0 52 0;
#X connect 40 0 51 0;
#X connect 40 0 42 0;
#X connect 41 0 40 0;
#X connect 42 0 43 0;
#X connect 43 0 44 0;
#X connect 44 0 45 0;
#X connect 44 1 46 0;
#X connect 44 2 47 0;
#X connect 44 3 48 0;
#X connect 44 4 49 0;
#X connect 44 5 50 0;
#X connect 45 0 33 0;
#X connect 46 0 33 0;
#X connect 47 0 33 0;
#X connect 48 0 33 0;
#X connect 49 0 33 0;
#X connect 50 0 33 0;
#X connect 51 0 15 0;
#X connect 52 0 38 1;
