#N canvas 216 70 987 611 10;
#X obj 381 268 *~ 0.1;
#X obj 381 357 dac~;
#X obj 886 150 - 0.5;
#X obj 886 170 * 2;
#X obj 381 312 *~;
#X obj 886 130 max 0.5;
#X obj 886 192 sqrt;
#X obj 553 37 bng 15 250 50 0 empty empty roar 0 -6 1 8 -262144 -1
-1;
#X obj 381 333 *~ 8;
#X obj 37 163 hsl 128 12 0.2 0.8 0 1 \$0-risefall empty risefall 40
6 1 8 -262144 -1 -1 4800 1;
#X obj 37 82 hsl 128 12 100 3000 0 1 \$0-dur empty duration 30 6 1
8 -262144 -1 -1 7600 1;
#X obj 553 59 articulate;
#X obj 585 18 r \$0-dur;
#X obj 618 38 r \$0-risefall;
#X obj 37 246 hsl 128 12 5 700 0 1 \$0-frange empty F0-range 40 6 1
8 -262144 -1 -1 5700 1;
#X obj 397 128 r \$0-frange;
#X obj 381 151 *;
#X obj 381 197 +;
#X obj 397 173 r \$0-base;
#X obj 39 331 hsl 128 12 5 300 0 1 \$0-base empty F0-base 40 6 1 8
-262144 -1 -1 8100 1;
#X obj 496 129 r \$0-cordr;
#X obj 480 149 *;
#X obj 39 417 hsl 128 12 0.2 5 0 1 \$0-cordr empty cord-ripple 40 6
1 8 -262144 -1 -1 4400 1;
#X obj 218 84 hsl 128 12 10 500 0 1 \$0-tractb empty tract-base 20
6 1 8 -262144 -1 -1 8500 1;
#X obj 566 151 *;
#X obj 217 170 hsl 128 12 10 500 0 1 \$0-tractbm empty tract-baserise
20 6 1 8 -262144 -1 -1 4400 1;
#X obj 566 192 +;
#X obj 688 168 r \$0-tractl;
#X obj 582 171 r \$0-tracb;
#X obj 582 129 r \$0-tractbm;
#X obj 688 129 r \$0-tractlm;
#X obj 672 150 *;
#X obj 672 188 +;
#X obj 217 256 hsl 128 12 10 100 0 1 \$0-traclm empty tract-lengthmod
20 6 1 8 -262144 -1 -1 4400 1;
#X obj 219 341 hsl 128 12 10 200 0 1 \$0-tractl empty tract-length
20 6 1 8 -262144 -1 -1 7600 1;
#X obj 219 425 hsl 128 12 2 40 0 1 \$0-tracrm empty tract-resmod 20
6 1 8 -262144 -1 -1 8000 1;
#X obj 786 130 r \$0-tractrm;
#X obj 770 150 *;
#X obj 786 170 r \$0-tractres;
#X obj 770 190 +;
#X obj 218 509 hsl 128 12 5 60 0 1 \$0-tractres empty tract-res 20
6 1 8 -262144 -1 -1 9100 1;
#X obj 409 195 r \$0-cordw;
#X obj 39 503 hsl 128 12 1 100 0 1 \$0-cordw empty cord-width 40 6
1 8 -262144 -1 -1 5300 1;
#N canvas 434 34 642 609 cord 0;
#X obj 54 85 cos~;
#X obj 54 43 -~ 0.5;
#X obj 54 108 +~ 1;
#X obj 105 131 cos~;
#X obj 54 159 *~;
#X obj 105 109 *~;
#X obj 54 21 phasor~ 100;
#X obj 54 131 *~ 0.5;
#X obj 121 65 sig~;
#X obj 121 86 lop~ 10;
#X obj 3 275 /~;
#X obj 54 227 *~;
#X obj 54 248 +~ 1;
#X obj 3 249 sig~ 1;
#X obj 3 391 outlet~;
#X obj 3 366 hip~ 1;
#X obj 54 201 *~;
#X obj 70 179 inlet cord width;
#X obj 121 41 inlet cord ripple;
#X obj 54 0 inlet cord freq;
#X obj 49 278 noise~;
#X obj 33 304 *~;
#X obj 3 332 *~;
#X obj 33 332 *~;
#X obj 97 278 sig~ 1;
#X obj 97 302 -~;
#X obj 113 233 inlet noisiness;
#X obj 113 254 sig~;
#X connect 0 0 2 0;
#X connect 1 0 5 0;
#X connect 1 0 0 0;
#X connect 2 0 7 0;
#X connect 3 0 4 1;
#X connect 4 0 16 0;
#X connect 5 0 3 0;
#X connect 6 0 1 0;
#X connect 7 0 4 0;
#X connect 8 0 9 0;
#X connect 9 0 5 1;
#X connect 10 0 21 0;
#X connect 10 0 22 0;
#X connect 11 0 12 0;
#X connect 12 0 10 1;
#X connect 13 0 10 0;
#X connect 15 0 14 0;
#X connect 16 0 11 0;
#X connect 16 0 11 1;
#X connect 17 0 16 1;
#X connect 18 0 8 0;
#X connect 19 0 6 0;
#X connect 20 0 21 1;
#X connect 21 0 23 0;
#X connect 22 0 15 0;
#X connect 23 0 15 0;
#X connect 24 0 25 0;
#X connect 25 0 22 1;
#X connect 26 0 27 0;
#X connect 27 0 23 1;
#X connect 27 0 25 1;
#X restore 381 245 pd cord model;
#X obj 438 215 r \$0-cordnz;
#X obj 38 589 hsl 128 12 0 1 0 1 \$0-cordnz empty cord-noise 40 6 1
8 -262144 -1 -1 3400 1;
#N canvas 0 0 462 479 tract 0;
#X obj 136 100 +;
#X obj 3 420 bp~ 1 1;
#X obj 409 354 inlet;
#X text 410 331 res;
#X obj 60 419 bp~ 1 1;
#X obj 166 144 +;
#X obj 119 418 bp~ 1 1;
#X obj 176 417 bp~ 1 1;
#X obj 196 188 +;
#X obj 235 417 bp~ 1 1;
#X obj 292 416 bp~ 1 1;
#X obj 351 415 bp~ 1 1;
#X obj 408 414 bp~ 1 1;
#X obj 226 229 +;
#X obj 256 270 +;
#X obj 286 312 +;
#X obj 316 355 +;
#X obj 189 460 outlet~;
#X obj 182 61 * 1.414;
#X obj 212 100 * 1.414;
#X obj 242 139 * 1.414;
#X obj 272 178 * 1.414;
#X obj 302 218 * 1.414;
#X obj 332 259 * 1.414;
#X obj 152 42 t f f;
#X obj 182 80 t f f;
#X obj 212 120 t f f;
#X obj 242 158 t f f;
#X obj 272 198 t f f;
#X obj 302 238 t f f;
#X obj 136 122 t f f;
#X obj 166 164 t f f;
#X obj 196 208 t f f;
#X obj 226 249 t f f;
#X obj 256 291 t f f;
#X obj 286 332 t f f;
#X obj 106 78 t f f;
#X obj 152 22 inlet separation;
#X obj 106 1 inlet base;
#X obj 3 20 inlet~ audio;
#X connect 0 0 30 0;
#X connect 1 0 17 0;
#X connect 2 0 12 2;
#X connect 2 0 11 2;
#X connect 2 0 10 2;
#X connect 2 0 9 2;
#X connect 2 0 7 2;
#X connect 2 0 6 2;
#X connect 2 0 4 2;
#X connect 2 0 1 2;
#X connect 4 0 17 0;
#X connect 5 0 31 0;
#X connect 6 0 17 0;
#X connect 7 0 17 0;
#X connect 8 0 32 0;
#X connect 9 0 17 0;
#X connect 10 0 17 0;
#X connect 11 0 17 0;
#X connect 12 0 17 0;
#X connect 13 0 33 0;
#X connect 14 0 34 0;
#X connect 15 0 35 0;
#X connect 16 0 12 1;
#X connect 18 0 25 0;
#X connect 19 0 26 0;
#X connect 20 0 27 0;
#X connect 21 0 28 0;
#X connect 22 0 29 0;
#X connect 23 0 16 1;
#X connect 24 0 0 1;
#X connect 24 1 18 0;
#X connect 25 0 5 1;
#X connect 25 1 19 0;
#X connect 26 0 8 1;
#X connect 26 1 20 0;
#X connect 27 0 13 1;
#X connect 27 1 21 0;
#X connect 28 0 14 1;
#X connect 28 1 22 0;
#X connect 29 0 15 1;
#X connect 29 1 23 0;
#X connect 30 0 4 1;
#X connect 30 1 5 0;
#X connect 31 0 6 1;
#X connect 31 1 8 0;
#X connect 32 0 7 1;
#X connect 32 1 13 0;
#X connect 33 0 9 1;
#X connect 33 1 14 0;
#X connect 34 0 10 1;
#X connect 34 1 15 0;
#X connect 35 0 11 1;
#X connect 35 1 16 0;
#X connect 36 0 1 1;
#X connect 36 1 0 0;
#X connect 37 0 24 0;
#X connect 38 0 36 0;
#X connect 39 0 1 0;
#X connect 39 0 4 0;
#X connect 39 0 6 0;
#X connect 39 0 7 0;
#X connect 39 0 9 0;
#X connect 39 0 10 0;
#X connect 39 0 11 0;
#X connect 39 0 12 0;
#X restore 381 290 pd tract comb filter;
#X obj 216 442 r control12;
#X obj 250 319 + 10;
#X obj 250 233 + 10;
#X obj 253 144 + 10;
#X obj 255 62 + 10;
#X obj 75 457 * 100;
#X obj 34 17 r control0;
#X obj 34 100 r control1;
#X obj 33 182 r control2;
#X obj 35 263 r control3;
#X obj 37 349 r control4;
#X obj 37 437 r control5;
#X obj 36 522 r control6;
#X obj 215 18 r control7;
#X obj 214 102 r control8;
#X obj 214 188 r control9;
#X obj 215 274 r control10;
#X obj 215 359 r control11;
#X obj 83 43 * 2900;
#X obj 82 64 + 100;
#X obj 82 120 * 0.6;
#X obj 81 141 + 0.2;
#X obj 83 203 * 695;
#X obj 83 224 + 5;
#X obj 81 286 * 295;
#X obj 81 307 + 5;
#X obj 75 371 * 4.8;
#X obj 75 392 + 0.2;
#X obj 75 478 + 1;
#X obj 78 543 * 1;
#X obj 78 564 + 0;
#X obj 256 41 * 490;
#X obj 253 123 * 490;
#X obj 250 212 * 90;
#X obj 250 298 * 190;
#X obj 254 381 * 38;
#X obj 254 402 + 2;
#X obj 254 464 * 55;
#X obj 254 485 + 5;
#X obj 52 51 abs;
#X obj 34 121 abs;
#X obj 35 284 abs;
#X obj 33 203 abs;
#X obj 37 370 abs;
#X obj 37 458 abs;
#X obj 36 543 abs;
#X obj 216 466 abs;
#X obj 212 386 abs;
#X obj 215 295 abs;
#X obj 214 209 abs;
#X obj 214 123 abs;
#X obj 215 39 abs;
#X obj 513 7 r touchBang;
#X connect 0 0 46 0;
#X connect 2 0 3 0;
#X connect 3 0 6 0;
#X connect 4 0 8 0;
#X connect 5 0 2 0;
#X connect 6 0 4 1;
#X connect 7 0 11 0;
#X connect 8 0 1 0;
#X connect 8 0 1 1;
#X connect 11 0 5 0;
#X connect 11 0 16 0;
#X connect 11 0 21 0;
#X connect 11 0 24 0;
#X connect 11 0 31 0;
#X connect 11 0 37 0;
#X connect 12 0 11 1;
#X connect 13 0 11 2;
#X connect 15 0 16 1;
#X connect 16 0 17 0;
#X connect 17 0 43 0;
#X connect 18 0 17 1;
#X connect 20 0 21 1;
#X connect 21 0 43 3;
#X connect 24 0 26 0;
#X connect 26 0 46 1;
#X connect 27 0 32 1;
#X connect 28 0 26 1;
#X connect 29 0 24 1;
#X connect 30 0 31 1;
#X connect 31 0 32 0;
#X connect 32 0 46 2;
#X connect 36 0 37 1;
#X connect 37 0 39 0;
#X connect 38 0 39 1;
#X connect 39 0 46 3;
#X connect 41 0 43 1;
#X connect 43 0 0 0;
#X connect 44 0 43 2;
#X connect 46 0 4 0;
#X connect 47 0 93 0;
#X connect 48 0 34 0;
#X connect 49 0 33 0;
#X connect 50 0 25 0;
#X connect 51 0 23 0;
#X connect 52 0 75 0;
#X connect 53 0 86 0;
#X connect 54 0 87 0;
#X connect 55 0 89 0;
#X connect 56 0 88 0;
#X connect 57 0 90 0;
#X connect 58 0 91 0;
#X connect 59 0 92 0;
#X connect 60 0 98 0;
#X connect 61 0 97 0;
#X connect 62 0 96 0;
#X connect 63 0 95 0;
#X connect 64 0 94 0;
#X connect 65 0 66 0;
#X connect 66 0 10 0;
#X connect 67 0 68 0;
#X connect 68 0 9 0;
#X connect 69 0 70 0;
#X connect 70 0 14 0;
#X connect 71 0 72 0;
#X connect 72 0 19 0;
#X connect 73 0 74 0;
#X connect 74 0 22 0;
#X connect 75 0 42 0;
#X connect 76 0 77 0;
#X connect 77 0 45 0;
#X connect 78 0 51 0;
#X connect 79 0 50 0;
#X connect 80 0 49 0;
#X connect 81 0 48 0;
#X connect 82 0 83 0;
#X connect 83 0 35 0;
#X connect 84 0 85 0;
#X connect 85 0 40 0;
#X connect 86 0 65 0;
#X connect 87 0 67 0;
#X connect 88 0 71 0;
#X connect 89 0 69 0;
#X connect 90 0 73 0;
#X connect 91 0 52 0;
#X connect 92 0 76 0;
#X connect 93 0 84 0;
#X connect 94 0 82 0;
#X connect 95 0 81 0;
#X connect 96 0 80 0;
#X connect 97 0 79 0;
#X connect 98 0 78 0;
#X connect 99 0 7 0;
