#N canvas 58 23 938 670 10;
#N canvas 116 25 529 644 euclid1 0;
#X obj 304 93 i;
#X obj 85 96 i;
#X obj 293 350 i;
#X obj 89 72 hsl 128 15 1 32 0 0 empty empty empty -2 -8 0 10 -262144
-1 -1 8194 1;
#X obj 309 72 hsl 128 15 1 32 0 0 empty empty empty -2 -8 0 10 -262144
-1 -1 8200 1;
#X text 184 56 Steps;
#X text 400 52 Pulses;
#X obj 80 158 moses;
#X floatatom 80 129 5 0 0 0 - - -, f 5;
#X floatatom 297 125 5 0 0 0 - - -, f 5;
#X obj 297 156 moses;
#X obj 293 327 i;
#X obj 354 327 + 1;
#X floatatom 293 372 5 0 0 0 - - -, f 5;
#X obj 327 409 moses;
#X obj 354 435 bng 15 250 50 0 empty empty empty 17 7 0 10 -262144
-1 -1;
#X obj 354 378 - 1;
#X text 250 370 count;
#X obj 338 115 s pulses1;
#X obj 119 119 s steps1;
#X obj 353 303 r setCount1;
#X obj 85 50 r setSteps1;
#X obj 306 50 r setPulses1;
#X obj 324 183 s setSteps1;
#X obj 80 184 s setPulses1;
#X obj 338 135 r steps1;
#X text 337 157 Pulses always < steps;
#X obj 118 139 r pulses1;
#X text 119 159 Pulses always < steps;
#X obj 354 354 r steps1;
#X obj 115 295 i;
#X text 68 320 bucket;
#X obj 130 343 r pulses1;
#X floatatom 115 321 5 0 0 0 - - -, f 5;
#X obj 130 269 r setBucket1;
#X obj 114 446 moses;
#X obj 140 374 r steps1;
#X obj 164 487 -;
#X obj 140 397 i;
#X floatatom 186 448 5 0 0 0 - - -, f 5;
#X obj 115 365 +;
#X obj 132 487 bng 15 250 50 0 empty empty empty 17 7 0 10 -262144
-1 -1;
#X obj 114 487 bng 15 250 50 0 empty empty empty 17 7 0 10 -262144
-1 -1;
#X floatatom 78 399 5 0 0 0 - - -, f 5;
#X msg 354 462 \; setCount1 0 \; setBucket1 0 \; \;;
#X obj 164 512 s setBucket1;
#X obj 30 486 s setBucket1;
#X obj 293 434 s count1;
#X obj 115 247 r masterTempo;
#X obj 293 279 r masterTempo;
#X obj 135 543 s play0;
#X obj 110 567 s noplay0;
#X connect 0 0 9 0;
#X connect 0 0 18 0;
#X connect 1 0 8 0;
#X connect 1 0 19 0;
#X connect 2 0 13 0;
#X connect 3 0 1 0;
#X connect 4 0 0 0;
#X connect 7 0 24 0;
#X connect 8 0 7 0;
#X connect 9 0 10 0;
#X connect 10 1 23 0;
#X connect 11 0 12 0;
#X connect 11 0 2 0;
#X connect 12 0 11 1;
#X connect 13 0 14 0;
#X connect 13 0 47 0;
#X connect 14 1 15 0;
#X connect 15 0 44 0;
#X connect 16 0 14 1;
#X connect 20 0 11 1;
#X connect 21 0 3 0;
#X connect 22 0 4 0;
#X connect 25 0 10 1;
#X connect 27 0 7 1;
#X connect 29 0 16 0;
#X connect 30 0 33 0;
#X connect 32 0 40 1;
#X connect 33 0 40 0;
#X connect 34 0 30 1;
#X connect 35 0 42 0;
#X connect 35 0 46 0;
#X connect 35 1 41 0;
#X connect 35 1 37 0;
#X connect 36 0 38 0;
#X connect 37 0 45 0;
#X connect 38 0 35 1;
#X connect 38 0 37 1;
#X connect 38 0 39 0;
#X connect 40 0 35 0;
#X connect 40 0 43 0;
#X connect 41 0 50 0;
#X connect 42 0 51 0;
#X connect 48 0 30 0;
#X connect 49 0 11 0;
#X restore 419 221 pd euclid1;
#N canvas 0 23 585 645 euclid2 0;
#X obj 332 98 i;
#X obj 113 101 i;
#X obj 312 339 i;
#X obj 117 77 hsl 128 15 1 32 0 0 empty empty empty -2 -8 0 10 -262144
-1 -1 6145 1;
#X obj 338 78 hsl 128 15 1 32 0 0 empty empty empty -2 -8 0 10 -262144
-1 -1 6200 1;
#X text 212 61 Steps;
#X text 428 57 Pulses;
#X obj 108 163 moses;
#X floatatom 108 134 5 0 0 0 - - -, f 5;
#X floatatom 325 130 5 0 0 0 - - -, f 5;
#X obj 325 161 moses;
#X obj 312 316 i;
#X obj 373 316 + 1;
#X floatatom 312 361 5 0 0 0 - - -, f 5;
#X obj 346 398 moses;
#X obj 373 424 bng 15 250 50 0 empty empty empty 17 7 0 10 -262144
-1 -1;
#X obj 373 367 - 1;
#X text 269 359 count;
#X text 365 162 Pulses always < steps;
#X text 147 164 Pulses always < steps;
#X obj 115 295 i;
#X text 68 320 bucket;
#X floatatom 115 321 5 0 0 0 - - -, f 5;
#X obj 114 446 moses;
#X obj 164 487 -;
#X obj 140 397 i;
#X floatatom 186 448 5 0 0 0 - - -, f 5;
#X obj 115 365 +;
#X obj 132 487 bng 15 250 50 0 empty empty empty 17 7 0 10 -262144
-1 -1;
#X obj 114 487 bng 15 250 50 0 empty empty empty 17 7 0 10 -262144
-1 -1;
#X floatatom 78 399 5 0 0 0 - - -, f 5;
#X obj 113 55 r setSteps2;
#X obj 147 124 s steps2;
#X obj 146 144 r pulses2;
#X obj 108 189 s setPulses2;
#X obj 334 55 r setPulses2;
#X obj 366 120 s pulses2;
#X obj 366 140 r steps2;
#X obj 352 188 s setSteps2;
#X obj 130 269 r setBucket2;
#X obj 130 343 r pulses2;
#X obj 140 374 r steps2;
#X obj 30 486 s setBucket2;
#X obj 164 512 s setBucket2;
#X obj 372 292 r setCount2;
#X obj 373 343 r steps2;
#X msg 373 451 \; setCount2 0 \; setBucket2 0 \; \;;
#X obj 312 423 s count2;
#X obj 312 262 r masterTemp;
#X obj 115 247 r masterTempo;
#X obj 132 558 s play1;
#X obj 109 580 s noplay1;
#X connect 0 0 9 0;
#X connect 0 0 36 0;
#X connect 1 0 8 0;
#X connect 1 0 32 0;
#X connect 2 0 13 0;
#X connect 3 0 1 0;
#X connect 4 0 0 0;
#X connect 7 0 34 0;
#X connect 8 0 7 0;
#X connect 9 0 10 0;
#X connect 10 1 38 0;
#X connect 11 0 12 0;
#X connect 11 0 2 0;
#X connect 12 0 11 1;
#X connect 13 0 14 0;
#X connect 13 0 47 0;
#X connect 14 1 15 0;
#X connect 15 0 46 0;
#X connect 16 0 14 1;
#X connect 20 0 22 0;
#X connect 22 0 27 0;
#X connect 23 0 29 0;
#X connect 23 0 42 0;
#X connect 23 1 28 0;
#X connect 23 1 24 0;
#X connect 24 0 43 0;
#X connect 25 0 23 1;
#X connect 25 0 24 1;
#X connect 25 0 26 0;
#X connect 27 0 23 0;
#X connect 27 0 30 0;
#X connect 28 0 50 0;
#X connect 29 0 51 0;
#X connect 31 0 3 0;
#X connect 33 0 7 1;
#X connect 35 0 4 0;
#X connect 37 0 10 1;
#X connect 39 0 20 1;
#X connect 40 0 27 1;
#X connect 41 0 25 0;
#X connect 44 0 11 1;
#X connect 45 0 16 0;
#X connect 48 0 11 0;
#X connect 49 0 20 0;
#X restore 419 245 pd euclid2;
#N canvas 0 23 571 639 euclid3 0;
#X obj 317 90 i;
#X obj 98 93 i;
#X obj 311 356 i;
#X obj 102 69 hsl 128 15 1 32 0 0 empty empty empty -2 -8 0 10 -262144
-1 -1 6145 1;
#X obj 322 69 hsl 128 15 1 32 0 0 empty empty empty -2 -8 0 10 -262144
-1 -1 6300 1;
#X text 197 53 Steps;
#X text 413 49 Pulses;
#X obj 93 155 moses;
#X floatatom 93 126 5 0 0 0 - - -, f 5;
#X floatatom 310 122 5 0 0 0 - - -, f 5;
#X obj 310 153 moses;
#X obj 311 333 i;
#X obj 372 333 + 1;
#X floatatom 311 378 5 0 0 0 - - -, f 5;
#X obj 345 415 moses;
#X obj 372 441 bng 15 250 50 0 empty empty empty 17 7 0 10 -262144
-1 -1;
#X obj 372 384 - 1;
#X text 268 376 count;
#X text 350 154 Pulses always < steps;
#X text 132 156 Pulses always < steps;
#X obj 115 295 i;
#X text 68 320 bucket;
#X floatatom 115 321 5 0 0 0 - - -, f 5;
#X obj 114 446 moses;
#X obj 164 487 -;
#X obj 140 397 i;
#X floatatom 186 448 5 0 0 0 - - -, f 5;
#X obj 115 365 +;
#X obj 132 487 bng 15 250 50 0 empty empty empty 17 7 0 10 -262144
-1 -1;
#X obj 114 487 bng 15 250 50 0 empty empty empty 17 7 0 10 -262144
-1 -1;
#X floatatom 78 399 5 0 0 0 - - -, f 5;
#X obj 115 247 r masterTempo;
#X obj 310 284 r masterTempo;
#X obj 98 47 r setSteps3;
#X obj 132 116 s steps3;
#X obj 131 136 r pulses3;
#X obj 93 181 s setPulses3;
#X obj 319 47 r setPulses3;
#X obj 351 112 s pulses3;
#X obj 351 132 r steps3;
#X obj 337 180 s setSteps3;
#X obj 130 269 r setBucket3;
#X obj 130 343 r pulses3;
#X obj 140 374 r steps3;
#X obj 30 486 s setBucket3;
#X obj 164 512 s setBucket3;
#X msg 372 468 \; setCount3 0 \; setBucket3 0 \; \;;
#X obj 372 360 r steps3;
#X obj 371 309 r setCount3;
#X obj 311 440 s count3;
#X obj 135 543 s play2;
#X obj 114 569 s noplay2;
#X connect 0 0 9 0;
#X connect 0 0 38 0;
#X connect 1 0 8 0;
#X connect 1 0 34 0;
#X connect 2 0 13 0;
#X connect 3 0 1 0;
#X connect 4 0 0 0;
#X connect 7 0 36 0;
#X connect 8 0 7 0;
#X connect 9 0 10 0;
#X connect 10 1 40 0;
#X connect 11 0 12 0;
#X connect 11 0 2 0;
#X connect 12 0 11 1;
#X connect 13 0 14 0;
#X connect 13 0 49 0;
#X connect 14 1 15 0;
#X connect 15 0 46 0;
#X connect 16 0 14 1;
#X connect 20 0 22 0;
#X connect 22 0 27 0;
#X connect 23 0 29 0;
#X connect 23 0 44 0;
#X connect 23 1 28 0;
#X connect 23 1 24 0;
#X connect 24 0 45 0;
#X connect 25 0 23 1;
#X connect 25 0 24 1;
#X connect 25 0 26 0;
#X connect 27 0 23 0;
#X connect 27 0 30 0;
#X connect 28 0 50 0;
#X connect 29 0 51 0;
#X connect 31 0 20 0;
#X connect 32 0 11 0;
#X connect 33 0 3 0;
#X connect 35 0 7 1;
#X connect 37 0 4 0;
#X connect 39 0 10 1;
#X connect 41 0 20 1;
#X connect 42 0 27 1;
#X connect 43 0 25 0;
#X connect 47 0 16 0;
#X connect 48 0 11 1;
#X restore 419 268 pd euclid3;
#N canvas 0 23 580 640 euclid4 0;
#X obj 335 92 i;
#X obj 116 95 i;
#X obj 334 354 i;
#X obj 121 73 hsl 128 15 1 32 0 0 empty empty empty -2 -8 0 10 -262144
-1 -1 5735 1;
#X obj 340 71 hsl 128 15 1 32 0 0 empty empty empty -2 -8 0 10 -262144
-1 -1 3600 1;
#X text 215 55 Steps;
#X text 431 51 Pulses;
#X obj 111 157 moses;
#X floatatom 111 128 5 0 0 0 - - -, f 5;
#X floatatom 328 124 5 0 0 0 - - -, f 5;
#X obj 328 155 moses;
#X obj 334 331 i;
#X obj 395 331 + 1;
#X floatatom 334 376 5 0 0 0 - - -, f 5;
#X obj 368 413 moses;
#X obj 395 439 bng 15 250 50 0 empty empty empty 17 7 0 10 -262144
-1 -1;
#X obj 395 382 - 1;
#X text 291 374 count;
#X text 368 156 Pulses always < steps;
#X text 150 158 Pulses always < steps;
#X obj 115 295 i;
#X text 68 320 bucket;
#X floatatom 115 321 5 0 0 0 - - -, f 5;
#X obj 114 446 moses;
#X obj 164 487 -;
#X obj 140 397 i;
#X floatatom 186 448 5 0 0 0 - - -, f 5;
#X obj 115 365 +;
#X obj 132 487 bng 15 250 50 0 empty empty empty 17 7 0 10 -262144
-1 -1;
#X obj 114 487 bng 15 250 50 0 empty empty empty 17 7 0 10 -262144
-1 -1;
#X floatatom 78 399 5 0 0 0 - - -, f 5;
#X obj 334 282 r masterTempo;
#X obj 115 247 r masterTempo;
#X obj 116 49 r setSteps4;
#X obj 151 118 s steps4;
#X obj 149 138 r pulses4;
#X obj 111 183 s setPulses4;
#X obj 130 269 r setBucket4;
#X obj 130 343 r pulses4;
#X obj 140 374 r steps4;
#X obj 30 486 s setBucket4;
#X obj 164 512 s setBucket4;
#X msg 395 466 \; setCount4 0 \; setBucket4 0 \; \;;
#X obj 395 358 r steps4;
#X obj 394 307 r setCount4;
#X obj 334 438 s count4;
#X obj 355 182 s setSteps4;
#X obj 369 134 r steps4;
#X obj 369 114 s pulses4;
#X obj 337 49 r setPulses4;
#X obj 135 543 s play3;
#X obj 115 564 s noplay3;
#X connect 0 0 9 0;
#X connect 0 0 48 0;
#X connect 1 0 8 0;
#X connect 1 0 34 0;
#X connect 2 0 13 0;
#X connect 3 0 1 0;
#X connect 4 0 0 0;
#X connect 7 0 36 0;
#X connect 8 0 7 0;
#X connect 9 0 10 0;
#X connect 10 1 46 0;
#X connect 11 0 12 0;
#X connect 11 0 2 0;
#X connect 12 0 11 1;
#X connect 13 0 14 0;
#X connect 13 0 45 0;
#X connect 14 1 15 0;
#X connect 15 0 42 0;
#X connect 16 0 14 1;
#X connect 20 0 22 0;
#X connect 22 0 27 0;
#X connect 23 0 29 0;
#X connect 23 0 40 0;
#X connect 23 1 28 0;
#X connect 23 1 24 0;
#X connect 24 0 41 0;
#X connect 25 0 23 1;
#X connect 25 0 24 1;
#X connect 25 0 26 0;
#X connect 27 0 23 0;
#X connect 27 0 30 0;
#X connect 28 0 50 0;
#X connect 29 0 51 0;
#X connect 31 0 11 0;
#X connect 32 0 20 0;
#X connect 33 0 3 0;
#X connect 35 0 7 1;
#X connect 37 0 20 1;
#X connect 38 0 27 1;
#X connect 39 0 25 0;
#X connect 43 0 16 0;
#X connect 44 0 11 1;
#X connect 47 0 10 1;
#X connect 49 0 4 0;
#X restore 419 291 pd euclid4;
#X obj 235 54 bng 15 250 50 0 empty empty empty 17 7 0 10 -262144 -1
-1;
#X obj 419 166 metro 250;
#X obj 418 95 hsl 128 15 1000 2 0 0 empty empty empty -2 -8 0 10 -262144
-1 -1 0 1;
#X floatatom 461 117 5 0 0 0 - - -, f 5;
#X text 516 80 Tempo;
#X obj 234 31 loadbang;
#X obj 418 187 s masterTempo;
#N canvas 63 49 428 381 vivian-loopbox 0;
#X obj 50 132 throw~ scope0;
#N canvas 182 63 693 636 viv-channel0 0;
#X obj 280 342 line~;
#X obj 262 395 *~;
#X floatatom 280 267 5 0 0 0 - - -, f 5;
#X obj 283 242 hsl 128 15 0 1 0 0 empty empty empty -2 -8 0 10 -262144
-1 -1 12700 1;
#X obj 267 31 inlet;
#X obj 271 137 mtof;
#X obj 107 127 inlet;
#X obj 171 116 inlet;
#X obj 265 450 outlet~;
#X msg 134 174 0;
#X msg 206 176 1;
#X obj 267 52 abs;
#X obj 280 300 pack f 20;
#X obj 320 167 osc~ 100;
#X obj 262 416 *~ 0.5;
#X obj 269 86 * 40;
#X obj 270 111 + 55;
#X obj 272 163 osc~;
#X connect 0 0 1 1;
#X connect 1 0 14 0;
#X connect 2 0 12 0;
#X connect 3 0 2 0;
#X connect 4 0 11 0;
#X connect 5 0 17 0;
#X connect 6 0 9 0;
#X connect 7 0 10 0;
#X connect 9 0 3 0;
#X connect 10 0 3 0;
#X connect 11 0 15 0;
#X connect 12 0 0 0;
#X connect 14 0 8 0;
#X connect 15 0 16 0;
#X connect 16 0 5 0;
#X connect 17 0 1 0;
#X restore 50 102 pd viv-channel0;
#X obj 136 60 r control0;
#X obj 81 61 r play0;
#X obj 51 32 r noplay0;
#X obj 229 35 r noplay1;
#X obj 259 64 r play1;
#X obj 315 63 r control1;
#N canvas 547 46 693 636 viv-channel1 0;
#X obj 280 342 line~;
#X obj 262 395 *~;
#X floatatom 280 267 5 0 0 0 - - -, f 5;
#X obj 283 242 hsl 128 15 0 1 0 0 empty empty empty -2 -8 0 10 -262144
-1 -1 12700 1;
#X obj 260 26 inlet, f 3;
#X obj 271 137 mtof;
#X obj 107 127 inlet;
#X obj 171 116 inlet;
#X obj 265 450 outlet~;
#X msg 134 174 0;
#X msg 206 176 1;
#X obj 263 62 abs;
#X obj 280 300 pack f 20;
#X obj 320 167 osc~ 200;
#X obj 262 416 *~ 0.5;
#X obj 269 86 * 40;
#X obj 270 111 + 55;
#X obj 271 175 osc~;
#X connect 0 0 1 1;
#X connect 1 0 14 0;
#X connect 2 0 12 0;
#X connect 3 0 2 0;
#X connect 4 0 11 0;
#X connect 5 0 17 0;
#X connect 6 0 9 0;
#X connect 7 0 10 0;
#X connect 9 0 3 0;
#X connect 10 0 3 0;
#X connect 11 0 15 0;
#X connect 12 0 0 0;
#X connect 14 0 8 0;
#X connect 15 0 16 0;
#X connect 16 0 5 0;
#X connect 17 0 1 0;
#X restore 228 105 pd viv-channel1;
#X obj 52 190 r noplay2;
#X obj 82 219 r play2;
#X obj 137 218 r control2;
#X obj 230 193 r noplay3;
#X obj 260 222 r play3;
#X obj 316 221 r control3;
#N canvas 673 27 693 636 viv-channel3 0;
#X obj 280 342 line~;
#X obj 262 395 *~;
#X floatatom 280 267 5 0 0 0 - - -, f 5;
#X obj 283 242 hsl 128 15 0 1 0 0 empty empty empty -2 -8 0 10 -262144
-1 -1 0 1;
#X obj 268 24 inlet;
#X obj 271 137 mtof;
#X obj 107 127 inlet;
#X obj 171 116 inlet;
#X obj 265 450 outlet~;
#X msg 134 174 0;
#X msg 206 176 1;
#X obj 268 55 abs;
#X obj 280 300 pack f 20;
#X obj 262 416 *~ 0.5;
#X obj 269 86 * 40;
#X floatatom 312 185 5 0 0 0 - - -, f 5;
#X obj 270 111 + 55;
#X obj 272 163 osc~;
#X connect 0 0 1 1;
#X connect 1 0 13 0;
#X connect 2 0 12 0;
#X connect 3 0 2 0;
#X connect 4 0 11 0;
#X connect 5 0 17 0;
#X connect 6 0 9 0;
#X connect 7 0 10 0;
#X connect 9 0 3 0;
#X connect 10 0 3 0;
#X connect 11 0 14 0;
#X connect 12 0 0 0;
#X connect 13 0 8 0;
#X connect 14 0 16 0;
#X connect 16 0 5 0;
#X connect 16 0 15 0;
#X connect 17 0 1 0;
#X restore 229 263 pd viv-channel3;
#N canvas 547 46 693 636 viv-channel2 0;
#X obj 280 342 line~;
#X obj 262 395 *~;
#X floatatom 280 267 5 0 0 0 - - -, f 5;
#X obj 283 242 hsl 128 15 0 1 0 0 empty empty empty -2 -8 0 10 -262144
-1 -1 12700 1;
#X obj 261 14 inlet;
#X obj 271 137 mtof;
#X obj 107 127 inlet;
#X obj 171 116 inlet;
#X obj 265 450 outlet~;
#X msg 134 174 0;
#X msg 206 176 1;
#X obj 263 50 abs;
#X obj 280 300 pack f 20;
#X obj 262 416 *~ 0.5;
#X obj 269 86 * 40;
#X obj 270 111 + 55;
#X obj 272 163 osc~;
#X connect 0 0 1 1;
#X connect 1 0 13 0;
#X connect 2 0 12 0;
#X connect 3 0 2 0;
#X connect 4 0 11 0;
#X connect 5 0 16 0;
#X connect 6 0 9 0;
#X connect 7 0 10 0;
#X connect 9 0 3 0;
#X connect 10 0 3 0;
#X connect 11 0 14 0;
#X connect 12 0 0 0;
#X connect 13 0 8 0;
#X connect 14 0 15 0;
#X connect 15 0 5 0;
#X connect 16 0 1 0;
#X restore 51 260 pd viv-channel2;
#X obj 228 135 throw~ scope1;
#X obj 51 290 throw~ scope2;
#X obj 229 293 throw~ scope3;
#X connect 1 0 0 0;
#X connect 2 0 1 2;
#X connect 3 0 1 1;
#X connect 4 0 1 0;
#X connect 5 0 8 0;
#X connect 6 0 8 1;
#X connect 7 0 8 2;
#X connect 8 0 17 0;
#X connect 9 0 16 0;
#X connect 10 0 16 1;
#X connect 11 0 16 2;
#X connect 12 0 15 0;
#X connect 13 0 15 1;
#X connect 14 0 15 2;
#X connect 15 0 19 0;
#X connect 16 0 18 0;
#X restore 419 316 pd vivian-loopbox;
#N canvas 566 23 1004 695 output-stage 1;
#X obj 476 333 freeverb~;
#X msg 588 286 wet \$1;
#X msg 636 286 dry \$1;
#X obj 599 237 hsl 128 15 0 1 0 0 empty empty empty -2 -8 0 10 -262144
-1 -1 0 1;
#N canvas 1 80 450 300 inv 0;
#X obj 154 69 inlet;
#X obj 154 179 outlet;
#X msg 154 124 1;
#X obj 154 97 t b f;
#X obj 154 151 -;
#X connect 0 0 3 0;
#X connect 2 0 4 0;
#X connect 3 0 2 0;
#X connect 3 1 4 1;
#X connect 4 0 1 0;
#X restore 636 259 pd inv;
#X floatatom 694 284 5 0 0 0 - - -, f 5;
#X text 579 215 dry;
#X text 704 214 wet;
#X floatatom 595 260 5 0 0 0 - - -, f 5;
#X obj 474 637 dac~;
#X obj 591 121 loadbang;
#X obj 660 148 abs;
#X obj 659 173 / 7;
#X obj 616 149 t f b;
#X floatatom 591 175 5 0 0 0 - - -, f 5;
#X obj 624 214 line 0 200;
#X obj 591 193 pack f 500;
#X msg 582 149 0;
#X text 580 321 Playback Preview;
#X obj 662 103 r control13;
#X obj 426 611 clip~ -1 1;
#X obj 426 576 hip~ 1;
#X obj 499 611 clip~ -1 1;
#X obj 499 576 hip~ 1;
#X obj 349 639 throw~ scope4;
#X obj 216 66 catch~ audioOut0;
#X obj 594 66 catch~ audioOut3;
#X obj 526 100 *~ 0.75;
#X obj 475 102 *~ 0.25;
#X obj 371 104 *~ 0.75;
#X obj 424 102 *~ 0.25;
#X obj 363 71 catch~ audioOut1;
#X obj 478 69 catch~ audioOut2;
#X obj 393 577 +~;
#X obj 384 163 +~;
#X obj 530 160 +~;
#X obj 369 607 *~ 0.5;
#X obj 565 528 vline~;
#X obj 351 481 vline~;
#X obj 400 510 *~;
#X obj 541 552 *~;
#X msg 351 449 1 500;
#X msg 565 496 1 500;
#X obj 346 413 r onLoad;
#X obj 624 474 r onLoad;
#X obj 685 475 r onExit;
#X msg 619 500 0 500;
#X obj 296 415 r onExit;
#X msg 303 451 0 500;
#X obj 508 483 *~;
#X obj 538 361 env~;
#X obj 538 383 dbtorms;
#X obj 538 427 -;
#X obj 427 487 *~;
#X obj 457 365 env~;
#X obj 457 387 dbtorms;
#X obj 457 431 -;
#X obj 457 453 lop~ 10;
#X obj 538 449 lop~ 10;
#X msg 457 409 0.75 \$1;
#X msg 538 405 0.75 \$1;
#X connect 0 0 54 0;
#X connect 0 0 53 0;
#X connect 0 1 50 0;
#X connect 0 1 49 0;
#X connect 1 0 0 0;
#X connect 2 0 0 0;
#X connect 3 0 1 0;
#X connect 3 0 4 0;
#X connect 3 0 8 0;
#X connect 4 0 2 0;
#X connect 4 0 5 0;
#X connect 10 0 17 0;
#X connect 11 0 12 0;
#X connect 12 0 13 0;
#X connect 13 0 14 0;
#X connect 13 1 14 0;
#X connect 14 0 16 0;
#X connect 15 0 3 0;
#X connect 16 0 15 0;
#X connect 17 0 3 0;
#X connect 19 0 11 0;
#X connect 20 0 9 0;
#X connect 21 0 20 0;
#X connect 22 0 9 1;
#X connect 23 0 22 0;
#X connect 25 0 34 0;
#X connect 26 0 35 1;
#X connect 27 0 35 0;
#X connect 28 0 34 1;
#X connect 29 0 34 1;
#X connect 30 0 35 0;
#X connect 31 0 29 0;
#X connect 31 0 30 0;
#X connect 32 0 27 0;
#X connect 32 0 28 0;
#X connect 33 0 36 0;
#X connect 34 0 0 0;
#X connect 35 0 0 1;
#X connect 36 0 24 0;
#X connect 37 0 40 1;
#X connect 38 0 39 1;
#X connect 39 0 21 0;
#X connect 39 0 33 0;
#X connect 40 0 23 0;
#X connect 40 0 33 1;
#X connect 41 0 38 0;
#X connect 42 0 37 0;
#X connect 43 0 41 0;
#X connect 44 0 42 0;
#X connect 45 0 46 0;
#X connect 46 0 37 0;
#X connect 47 0 48 0;
#X connect 48 0 38 0;
#X connect 49 0 40 0;
#X connect 50 0 51 0;
#X connect 51 0 60 0;
#X connect 52 0 58 0;
#X connect 53 0 39 1;
#X connect 54 0 55 0;
#X connect 55 0 59 0;
#X connect 56 0 57 0;
#X connect 57 0 53 1;
#X connect 58 0 49 1;
#X connect 59 0 56 0;
#X connect 60 0 52 0;
#X restore 418 342 pd output-stage;
#N canvas 448 23 1177 691 scopes 1;
#X obj 48 73 clip~ -1 1;
#X obj 80 102 loadbang;
#X obj 85 152 metro 100;
#X text 84 124 1;
#X msg 84 124 1;
#N canvas 0 22 450 300 (subpatch) 0;
#X array scope0 256 float 2;
#X coords 0 1 256 -1 200 140 1 0 0;
#X restore 163 70 graph;
#X obj 53 296 clip~ -1 1;
#X obj 85 325 loadbang;
#X obj 90 375 metro 100;
#X text 89 347 1;
#X msg 89 347 1;
#N canvas 0 22 450 300 (subpatch) 0;
#X array scope1 256 float 2;
#X coords 0 1 256 -1 200 140 1 0 0;
#X restore 168 293 graph;
#X obj 56 522 clip~ -1 1;
#X obj 88 551 loadbang;
#X obj 93 601 metro 100;
#X text 92 573 1;
#X msg 92 573 1;
#N canvas 0 22 450 300 (subpatch) 0;
#X array scope2 256 float 2;
#X coords 0 1 256 -1 200 140 1 0 0;
#X restore 171 519 graph;
#X obj 426 68 clip~ -1 1;
#X obj 458 97 loadbang;
#X obj 463 147 metro 100;
#X text 462 119 1;
#X msg 462 119 1;
#N canvas 0 22 450 300 (subpatch) 0;
#X array scope5 256 float 2;
#X coords 0 1 256 -1 200 140 1 0 0;
#X restore 574 514 graph;
#X obj 26 13 catch~ scope0;
#X obj 31 236 catch~ scope1;
#X obj 34 462 catch~ scope2;
#X obj 404 8 catch~ scope3;
#X obj 54 625 tabwrite~ scope2;
#X obj 424 171 tabwrite~ scope3;
#X obj 46 176 tabwrite~ scope0;
#X obj 51 399 tabwrite~ scope1;
#X obj 31 208 throw~ audioOut0;
#X obj 36 431 throw~ audioOut1;
#X obj 39 657 throw~ audioOut2;
#X obj 409 203 throw~ audioOut3;
#N canvas 0 22 450 300 (subpatch) 0;
#X array scope3 256 float 2;
#X coords 0 1 256 -1 200 140 1 0 0;
#X restore 541 65 graph;
#X obj 445 336 clip~ -1 1;
#X obj 477 365 loadbang;
#X obj 482 415 metro 100;
#X text 481 387 1;
#X msg 481 387 1;
#X obj 443 439 tabwrite~ scope4;
#X obj 423 276 catch~ scope4;
#N canvas 0 22 450 300 (subpatch) 0;
#X array scope4 256 float 2;
#X coords 0 1 256 -1 200 140 1 0 0;
#X restore 571 314 graph;
#X obj 442 550 clip~ -1 1;
#X obj 474 579 loadbang;
#X obj 479 629 metro 100;
#X text 478 601 1;
#X msg 478 601 1;
#X obj 440 653 tabwrite~ scope5;
#X obj 420 490 catch~ scope5;
#X connect 0 0 30 0;
#X connect 1 0 4 0;
#X connect 2 0 30 0;
#X connect 4 0 2 0;
#X connect 6 0 31 0;
#X connect 7 0 10 0;
#X connect 8 0 31 0;
#X connect 10 0 8 0;
#X connect 12 0 28 0;
#X connect 13 0 16 0;
#X connect 14 0 28 0;
#X connect 16 0 14 0;
#X connect 18 0 29 0;
#X connect 19 0 22 0;
#X connect 20 0 29 0;
#X connect 22 0 20 0;
#X connect 24 0 0 0;
#X connect 24 0 32 0;
#X connect 25 0 6 0;
#X connect 25 0 33 0;
#X connect 26 0 12 0;
#X connect 26 0 34 0;
#X connect 27 0 18 0;
#X connect 27 0 35 0;
#X connect 37 0 42 0;
#X connect 38 0 41 0;
#X connect 39 0 42 0;
#X connect 41 0 39 0;
#X connect 43 0 37 0;
#X connect 45 0 50 0;
#X connect 46 0 49 0;
#X connect 47 0 50 0;
#X connect 49 0 47 0;
#X connect 51 0 45 0;
#X restore 418 367 pd scopes;
#X obj 580 72 hsl 128 15 1 32 0 0 empty empty empty -2 -8 0 10 -262144
-1 -1 0 1;
#X obj 722 70 hsl 128 15 1 32 0 0 empty empty empty -2 -8 0 10 -262144
-1 -1 8200 1;
#X text 675 56 Steps;
#X text 813 50 Pulses;
#X obj 577 102 s setSteps1;
#X obj 719 98 s setPulses1;
#X obj 579 183 hsl 128 15 1 32 0 0 empty empty empty -2 -8 0 10 -262144
-1 -1 0 1;
#X obj 723 182 hsl 128 15 1 32 0 0 empty empty empty -2 -8 0 10 -262144
-1 -1 6200 1;
#X text 673 161 Steps;
#X text 814 161 Pulses;
#X obj 579 298 hsl 128 15 1 32 0 0 empty empty empty -2 -8 0 10 -262144
-1 -1 0 1;
#X obj 723 297 hsl 128 15 1 32 0 0 empty empty empty -2 -8 0 10 -262144
-1 -1 6300 1;
#X text 674 282 Steps;
#X text 814 277 Pulses;
#X obj 580 416 hsl 128 15 1 32 0 0 empty empty empty -2 -8 0 10 -262144
-1 -1 0 1;
#X obj 724 415 hsl 128 15 1 32 0 0 empty empty empty -2 -8 0 10 -262144
-1 -1 3600 1;
#X text 675 400 Steps;
#X text 815 395 Pulses;
#X obj 576 213 s setSteps2;
#X obj 576 328 s setSteps3;
#X obj 577 446 s setSteps4;
#X obj 721 443 s setPulses4;
#X obj 720 325 s setPulses3;
#X obj 720 210 s setPulses2;
#X obj 645 34 i;
#X obj 716 14 r control4;
#X obj 790 33 i;
#X obj 573 11 r control5;
#X obj 658 261 i;
#X obj 812 257 i;
#X obj 626 153 i;
#X obj 790 142 i;
#X obj 716 123 r control6;
#X obj 577 129 r control7;
#X obj 720 242 r control8;
#X obj 576 245 r control9;
#X obj 667 376 i;
#X obj 813 374 i;
#X obj 722 358 r control10;
#X obj 578 361 r control11;
#X obj 368 7 r control12;
#X obj 653 102 print;
#X obj 813 98 print;
#X obj 575 35 * 16;
#X obj 716 36 * 16;
#X obj 577 160 * 16;
#X obj 721 157 * 16;
#X obj 576 273 * 16;
#X obj 720 273 * 16;
#X obj 578 389 * 16;
#X obj 722 389 * 16;
#X obj 370 30 * -500;
#X obj 230 454 hsl 128 15 0 1 0 0 control0 empty empty -2 -8 0 10 -262144
-1 -1 0 1;
#X obj 238 478 hsl 128 15 0 1 0 0 control0 empty empty -2 -8 0 10 -262144
-1 -1 0 1;
#X obj 236 498 hsl 128 15 0 1 0 0 control2 empty empty -2 -8 0 10 -262144
-1 -1 0 1;
#X obj 236 519 hsl 128 15 0 1 0 0 control3 empty empty -2 -8 0 10 -262144
-1 -1 0 1;
#X obj 383 53 + 510;
#X floatatom 235 555 5 0 0 0 - - -, f 5;
#X msg 236 157 \; masterTempo 100 \; setCount1 0 \; setBucket1 0 \;
setSteps1 14 \; setPulses1 1 \; setCount2 1 \; setBucket2 0 \; setSteps2
14 \; setPulses2 1 \; setCount3 0 \; setBucket3 0 \; setSteps3 15 \;
setPulses3 1 \; setCount4 0 \; setBucket4 0 \; setSteps4 15 \; setPulses4
1 \; \; control0 0.201 \; control1 0.202 \; control2 0.203 \; control3
0.204 \; masterVolume 0.75 \; \;;
#X obj 187 116 s onLoad;
#X obj 148 44 bng 15 250 50 0 empty empty empty 17 7 0 10 -262144 -1
-1;
#X obj 149 78 s onExit;
#X connect 4 0 5 0;
#X connect 4 0 72 0;
#X connect 4 0 73 0;
#X connect 5 0 10 0;
#X connect 6 0 7 0;
#X connect 6 0 5 1;
#X connect 9 0 4 0;
#X connect 14 0 18 0;
#X connect 14 0 55 0;
#X connect 15 0 19 0;
#X connect 15 0 56 0;
#X connect 20 0 32 0;
#X connect 21 0 37 0;
#X connect 24 0 33 0;
#X connect 25 0 36 0;
#X connect 28 0 34 0;
#X connect 29 0 35 0;
#X connect 38 0 14 0;
#X connect 39 0 58 0;
#X connect 40 0 15 0;
#X connect 41 0 57 0;
#X connect 42 0 24 0;
#X connect 43 0 25 0;
#X connect 44 0 20 0;
#X connect 45 0 21 0;
#X connect 46 0 60 0;
#X connect 47 0 59 0;
#X connect 48 0 62 0;
#X connect 49 0 61 0;
#X connect 50 0 28 0;
#X connect 51 0 29 0;
#X connect 52 0 64 0;
#X connect 53 0 63 0;
#X connect 54 0 65 0;
#X connect 57 0 38 0;
#X connect 58 0 40 0;
#X connect 59 0 44 0;
#X connect 60 0 45 0;
#X connect 61 0 42 0;
#X connect 62 0 43 0;
#X connect 63 0 50 0;
#X connect 64 0 51 0;
#X connect 65 0 70 0;
#X connect 69 0 71 0;
#X connect 70 0 6 0;
#X connect 74 0 75 0;
