#N canvas 119 120 685 565 10;
#N canvas 111 26 1177 691 scopes 0;
#X obj 48 73 clip~ -1 1;
#X obj 80 102 loadbang;
#X obj 85 152 metro 100;
#X text 84 124 1;
#X msg 84 124 1;
#N canvas 0 22 450 300 (subpatch) 0;
#X array scope0 256 float 2;
#X coords 0 1 256 -1 200 140 1 0 0;
#X restore 163 70 graph;
#X obj 53 296 clip~ -1 1;
#X obj 85 325 loadbang;
#X obj 90 375 metro 100;
#X text 89 347 1;
#X msg 89 347 1;
#N canvas 0 22 450 300 (subpatch) 0;
#X array scope1 256 float 2;
#X coords 0 1 256 -1 200 140 1 0 0;
#X restore 168 293 graph;
#X obj 56 522 clip~ -1 1;
#X obj 88 551 loadbang;
#X obj 93 601 metro 100;
#X text 92 573 1;
#X msg 92 573 1;
#N canvas 0 22 450 300 (subpatch) 0;
#X array scope2 256 float 2;
#X coords 0 1 256 -1 200 140 1 0 0;
#X restore 171 519 graph;
#X obj 426 68 clip~ -1 1;
#X obj 458 97 loadbang;
#X obj 463 147 metro 100;
#X text 462 119 1;
#X msg 462 119 1;
#N canvas 0 22 450 300 (subpatch) 0;
#X array scope3 256 float 2;
#X coords 0 1 256 -1 200 140 1 0 0;
#X restore 541 65 graph;
#X obj 432 298 clip~ -1 1;
#X obj 464 327 loadbang;
#X obj 469 377 metro 100;
#X text 468 349 1;
#X msg 468 349 1;
#N canvas 0 22 450 300 (subpatch) 0;
#X array scope4 256 float 2;
#X coords 0 1 256 -1 200 140 1 0 0;
#X restore 547 295 graph;
#X obj 437 521 clip~ -1 1;
#X obj 469 550 loadbang;
#X obj 474 600 metro 100;
#X text 473 572 1;
#X msg 473 572 1;
#N canvas 0 22 450 300 (subpatch) 0;
#X array scope5 256 float 2;
#X coords 0 1 256 -1 200 140 1 0 0;
#X restore 552 518 graph;
#X obj 26 13 catch~ scope0;
#X obj 31 236 catch~ scope1;
#X obj 34 462 catch~ scope2;
#X obj 404 8 catch~ scope3;
#X obj 410 238 catch~ scope4;
#X obj 415 461 catch~ scope5;
#X obj 54 625 tabwrite~ scope2;
#X obj 424 171 tabwrite~ scope3;
#X obj 430 401 tabwrite~ scope4;
#X obj 435 624 tabwrite~ scope5;
#X obj 46 176 tabwrite~ scope0;
#X obj 51 399 tabwrite~ scope1;
#X obj 808 64 clip~ -1 1;
#X obj 840 93 loadbang;
#X obj 845 143 metro 100;
#X text 844 115 1;
#X msg 844 115 1;
#N canvas 0 22 450 300 (subpatch) 0;
#X array scope6 256 float 2;
#X coords 0 1 256 -1 200 140 1 0 0;
#X restore 923 61 graph;
#X obj 786 4 catch~ scope6;
#X obj 806 167 tabwrite~ scope6;
#X obj 31 208 throw~ audioOut0;
#X obj 36 431 throw~ audioOut1;
#X obj 39 657 throw~ audioOut2;
#X obj 409 203 throw~ audioOut3;
#X obj 415 433 throw~ audioOut4;
#X obj 420 656 throw~ audioOut5;
#X obj 791 199 throw~ audioOut6;
#X connect 0 0 46 0;
#X connect 1 0 4 0;
#X connect 2 0 46 0;
#X connect 4 0 2 0;
#X connect 6 0 47 0;
#X connect 7 0 10 0;
#X connect 8 0 47 0;
#X connect 10 0 8 0;
#X connect 12 0 42 0;
#X connect 13 0 16 0;
#X connect 14 0 42 0;
#X connect 16 0 14 0;
#X connect 18 0 43 0;
#X connect 19 0 22 0;
#X connect 20 0 43 0;
#X connect 22 0 20 0;
#X connect 24 0 44 0;
#X connect 25 0 28 0;
#X connect 26 0 44 0;
#X connect 28 0 26 0;
#X connect 30 0 45 0;
#X connect 31 0 34 0;
#X connect 32 0 45 0;
#X connect 34 0 32 0;
#X connect 36 0 0 0;
#X connect 36 0 56 0;
#X connect 37 0 6 0;
#X connect 37 0 57 0;
#X connect 38 0 12 0;
#X connect 38 0 58 0;
#X connect 39 0 18 0;
#X connect 39 0 59 0;
#X connect 40 0 24 0;
#X connect 40 0 60 0;
#X connect 41 0 30 0;
#X connect 41 0 61 0;
#X connect 48 0 55 0;
#X connect 49 0 52 0;
#X connect 50 0 55 0;
#X connect 52 0 50 0;
#X connect 54 0 48 0;
#X connect 54 0 62 0;
#X restore 46 75 pd scopes;
#N canvas 82 23 1004 694 output-stage 0;
#X obj 267 203 r masterVolume;
#N canvas 381 87 381 409 channel0 0;
#X obj 96 15 catch~ audioOut0;
#X obj 46 328 outlet~;
#X obj 217 327 outlet~;
#X obj 96 130 r pan0;
#X obj 245 65 r screenW;
#X obj 209 40 loadbang;
#X obj 215 185 /;
#X obj 98 216 -;
#X obj 98 250 /;
#X floatatom 98 280 5 0 0 0 - - -, f 5;
#X floatatom 249 274 5 0 0 0 - - -, f 5;
#X obj 47 279 *~;
#X obj 217 273 *~;
#X obj 210 108 f;
#X obj 79 186 bng 15 250 50 0 empty empty empty 17 7 0 10 -262144 -1
-1;
#X msg 210 79 320;
#X obj 343 122 vsl 15 128 0 320 0 0 pan0 empty empty 0 -9 0 10 -262144
-1 -1 0 1;
#X connect 0 0 11 0;
#X connect 0 0 12 0;
#X connect 3 0 7 1;
#X connect 3 0 14 0;
#X connect 3 0 6 0;
#X connect 4 0 13 0;
#X connect 5 0 15 0;
#X connect 6 0 10 0;
#X connect 6 0 12 1;
#X connect 7 0 8 0;
#X connect 8 0 11 1;
#X connect 8 0 9 0;
#X connect 11 0 1 0;
#X connect 12 0 2 0;
#X connect 13 0 6 1;
#X connect 13 0 7 0;
#X connect 13 0 8 1;
#X connect 14 0 7 0;
#X connect 15 0 13 0;
#X restore 42 55 pd channel0;
#X obj 215 217 +~;
#X obj 440 216 +~;
#N canvas 349 52 463 461 channel1 0;
#X obj 72 361 outlet~;
#X obj 243 360 outlet~;
#X obj 271 98 r screenW;
#X msg 236 112 320;
#X obj 235 73 loadbang;
#X obj 241 218 /;
#X obj 124 249 -;
#X obj 124 283 /;
#X floatatom 124 313 5 0 0 0 - - -, f 5;
#X floatatom 275 307 5 0 0 0 - - -, f 5;
#X obj 73 312 *~;
#X obj 243 306 *~;
#X obj 236 141 f;
#X obj 105 219 bng 15 250 50 0 empty empty empty 17 7 0 10 -262144
-1 -1;
#X obj 122 48 catch~ audioOut1;
#X obj 122 163 r pan1;
#X connect 2 0 12 0;
#X connect 3 0 12 0;
#X connect 4 0 3 0;
#X connect 5 0 9 0;
#X connect 5 0 11 1;
#X connect 6 0 7 0;
#X connect 7 0 10 1;
#X connect 7 0 8 0;
#X connect 10 0 0 0;
#X connect 11 0 1 0;
#X connect 12 0 5 1;
#X connect 12 0 6 0;
#X connect 12 0 7 1;
#X connect 13 0 6 0;
#X connect 14 0 10 0;
#X connect 14 0 11 0;
#X connect 15 0 6 1;
#X connect 15 0 13 0;
#X connect 15 0 5 0;
#X restore 118 55 pd channel1;
#N canvas 349 52 556 497 channel2 0;
#X obj 125 373 outlet~;
#X obj 296 372 outlet~;
#X obj 324 110 r screenW;
#X msg 289 124 320;
#X obj 288 85 loadbang;
#X obj 294 230 /;
#X obj 177 261 -;
#X obj 177 295 /;
#X floatatom 177 325 5 0 0 0 - - -, f 5;
#X floatatom 328 319 5 0 0 0 - - -, f 5;
#X obj 126 324 *~;
#X obj 296 318 *~;
#X obj 289 153 f;
#X obj 158 231 bng 15 250 50 0 empty empty empty 17 7 0 10 -262144
-1 -1;
#X obj 175 60 catch~ audioOut2;
#X obj 175 175 r pan2;
#X connect 2 0 12 0;
#X connect 3 0 12 0;
#X connect 4 0 3 0;
#X connect 5 0 9 0;
#X connect 5 0 11 1;
#X connect 6 0 7 0;
#X connect 7 0 10 1;
#X connect 7 0 8 0;
#X connect 10 0 0 0;
#X connect 11 0 1 0;
#X connect 12 0 5 1;
#X connect 12 0 6 0;
#X connect 12 0 7 1;
#X connect 13 0 6 0;
#X connect 14 0 10 0;
#X connect 14 0 11 0;
#X connect 15 0 6 1;
#X connect 15 0 13 0;
#X connect 15 0 5 0;
#X restore 193 55 pd channel2;
#N canvas 349 52 538 467 channel3 0;
#X obj 132 366 outlet~;
#X obj 303 365 outlet~;
#X obj 331 103 r screenW;
#X msg 296 117 320;
#X obj 295 78 loadbang;
#X obj 301 223 /;
#X obj 184 254 -;
#X obj 184 288 /;
#X floatatom 184 318 5 0 0 0 - - -, f 5;
#X floatatom 335 312 5 0 0 0 - - -, f 5;
#X obj 133 317 *~;
#X obj 303 311 *~;
#X obj 296 146 f;
#X obj 165 224 bng 15 250 50 0 empty empty empty 17 7 0 10 -262144
-1 -1;
#X obj 182 53 catch~ audioOut3;
#X obj 182 168 r pan3;
#X connect 2 0 12 0;
#X connect 3 0 12 0;
#X connect 4 0 3 0;
#X connect 5 0 9 0;
#X connect 5 0 11 1;
#X connect 6 0 7 0;
#X connect 7 0 10 1;
#X connect 7 0 8 0;
#X connect 10 0 0 0;
#X connect 11 0 1 0;
#X connect 12 0 5 1;
#X connect 12 0 6 0;
#X connect 12 0 7 1;
#X connect 13 0 6 0;
#X connect 14 0 10 0;
#X connect 14 0 11 0;
#X connect 15 0 6 1;
#X connect 15 0 13 0;
#X connect 15 0 5 0;
#X restore 269 55 pd channel3;
#N canvas 349 52 624 506 channel4 0;
#X obj 159 376 outlet~;
#X obj 330 375 outlet~;
#X obj 358 113 r screenW;
#X msg 323 127 320;
#X obj 322 88 loadbang;
#X obj 328 233 /;
#X obj 211 264 -;
#X obj 211 298 /;
#X floatatom 211 328 5 0 0 0 - - -, f 5;
#X floatatom 362 322 5 0 0 0 - - -, f 5;
#X obj 160 327 *~;
#X obj 330 321 *~;
#X obj 323 156 f;
#X obj 192 234 bng 15 250 50 0 empty empty empty 17 7 0 10 -262144
-1 -1;
#X obj 209 63 catch~ audioOut4;
#X obj 209 178 r pan4;
#X connect 2 0 12 0;
#X connect 3 0 12 0;
#X connect 4 0 3 0;
#X connect 5 0 9 0;
#X connect 5 0 11 1;
#X connect 6 0 7 0;
#X connect 7 0 10 1;
#X connect 7 0 8 0;
#X connect 10 0 0 0;
#X connect 11 0 1 0;
#X connect 12 0 5 1;
#X connect 12 0 6 0;
#X connect 12 0 7 1;
#X connect 13 0 6 0;
#X connect 14 0 10 0;
#X connect 14 0 11 0;
#X connect 15 0 6 1;
#X connect 15 0 13 0;
#X connect 15 0 5 0;
#X restore 345 55 pd channel4;
#N canvas 349 52 551 448 channel5 0;
#X obj 138 359 outlet~;
#X obj 309 358 outlet~;
#X obj 337 96 r screenW;
#X msg 302 110 320;
#X obj 301 71 loadbang;
#X obj 307 216 /;
#X obj 190 247 -;
#X obj 190 281 /;
#X floatatom 190 311 5 0 0 0 - - -, f 5;
#X floatatom 341 305 5 0 0 0 - - -, f 5;
#X obj 139 310 *~;
#X obj 309 304 *~;
#X obj 302 139 f;
#X obj 171 217 bng 15 250 50 0 empty empty empty 17 7 0 10 -262144
-1 -1;
#X obj 188 46 catch~ audioOut5;
#X obj 188 161 r pan5;
#X connect 2 0 12 0;
#X connect 3 0 12 0;
#X connect 4 0 3 0;
#X connect 5 0 9 0;
#X connect 5 0 11 1;
#X connect 6 0 7 0;
#X connect 7 0 10 1;
#X connect 7 0 8 0;
#X connect 10 0 0 0;
#X connect 11 0 1 0;
#X connect 12 0 5 1;
#X connect 12 0 6 0;
#X connect 12 0 7 1;
#X connect 13 0 6 0;
#X connect 14 0 10 0;
#X connect 14 0 11 0;
#X connect 15 0 6 1;
#X connect 15 0 13 0;
#X connect 15 0 5 0;
#X restore 421 55 pd channel5;
#N canvas 349 237 588 447 channel6 0;
#X obj 182 374 outlet~;
#X obj 353 373 outlet~;
#X obj 381 111 r screenW;
#X msg 346 125 320;
#X obj 345 86 loadbang;
#X obj 351 231 /;
#X obj 234 262 -;
#X obj 234 296 /;
#X floatatom 234 326 5 0 0 0 - - -, f 5;
#X floatatom 385 320 5 0 0 0 - - -, f 5;
#X obj 183 325 *~;
#X obj 353 319 *~;
#X obj 346 154 f;
#X obj 215 232 bng 15 250 50 0 empty empty empty 17 7 0 10 -262144
-1 -1;
#X obj 232 61 catch~ audioOut6;
#X obj 232 176 r pan6;
#X connect 2 0 12 0;
#X connect 3 0 12 0;
#X connect 4 0 3 0;
#X connect 5 0 9 0;
#X connect 5 0 11 1;
#X connect 6 0 7 0;
#X connect 7 0 10 1;
#X connect 7 0 8 0;
#X connect 10 0 0 0;
#X connect 11 0 1 0;
#X connect 12 0 5 1;
#X connect 12 0 6 0;
#X connect 12 0 7 1;
#X connect 13 0 6 0;
#X connect 14 0 10 0;
#X connect 14 0 11 0;
#X connect 15 0 6 1;
#X connect 15 0 13 0;
#X connect 15 0 5 0;
#X restore 497 55 pd channel6;
#N canvas 349 52 595 468 channel7 0;
#X obj 158 371 outlet~;
#X obj 329 370 outlet~;
#X obj 357 108 r screenW;
#X msg 322 122 320;
#X obj 321 83 loadbang;
#X obj 327 228 /;
#X obj 210 259 -;
#X obj 210 293 /;
#X floatatom 210 323 5 0 0 0 - - -, f 5;
#X floatatom 361 317 5 0 0 0 - - -, f 5;
#X obj 159 322 *~;
#X obj 329 316 *~;
#X obj 322 151 f;
#X obj 191 229 bng 15 250 50 0 empty empty empty 17 7 0 10 -262144
-1 -1;
#X obj 208 58 catch~ audioOut7;
#X obj 208 173 r pan7;
#X connect 2 0 12 0;
#X connect 3 0 12 0;
#X connect 4 0 3 0;
#X connect 5 0 9 0;
#X connect 5 0 11 1;
#X connect 6 0 7 0;
#X connect 7 0 10 1;
#X connect 7 0 8 0;
#X connect 10 0 0 0;
#X connect 11 0 1 0;
#X connect 12 0 5 1;
#X connect 12 0 6 0;
#X connect 12 0 7 1;
#X connect 13 0 6 0;
#X connect 14 0 10 0;
#X connect 14 0 11 0;
#X connect 15 0 6 1;
#X connect 15 0 13 0;
#X connect 15 0 5 0;
#X restore 573 55 pd channel7;
#X obj 249 307 *~;
#X obj 339 322 *~;
#X obj 301 470 freeverb~;
#X msg 403 421 wet \$1;
#X msg 451 421 dry \$1;
#X obj 401 369 hsl 128 15 0 1 0 0 empty empty empty -2 -8 0 10 -262144
-1 -1 0 1;
#N canvas 1 80 450 300 inv 0;
#X obj 154 69 inlet;
#X obj 154 179 outlet;
#X msg 154 124 1;
#X obj 154 97 t b f;
#X obj 154 151 -;
#X connect 0 0 3 0;
#X connect 2 0 4 0;
#X connect 3 0 2 0;
#X connect 3 1 4 1;
#X connect 4 0 1 0;
#X restore 451 394 pd inv;
#X floatatom 509 419 5 0 0 0 - - -, f 5;
#X text 394 350 dry;
#X text 519 349 wet;
#X floatatom 410 395 5 0 0 0 - - -, f 5;
#X obj 305 646 dac~;
#X obj 406 256 loadbang;
#X obj 475 283 abs;
#X obj 760 215 print, f 8;
#X obj 474 308 / 7;
#X obj 431 284 t f b;
#X obj 834 129 vsl 15 128 0 7 0 0 tempo8 empty empty 0 -9 0 10 -262144
-1 -1 0 1;
#X floatatom 406 310 5 0 0 0 - - -, f 5;
#X msg 789 575 7;
#X obj 789 604 s tempo8;
#X obj 289 615 hip~ 1;
#X obj 344 614 hip~ 1;
#X obj 439 349 line 0 200;
#X obj 406 328 pack f 500;
#X obj 265 245 pack f 300;
#X obj 266 272 line;
#X obj 335 239 pack f 300;
#X obj 336 266 line;
#X msg 397 284 0;
#X text 395 456 Playback Preview;
#X obj 382 577 *~;
#X obj 435 508 r masterVolume;
#X obj 413 535 == 0;
#X obj 398 478 catch~ audioOutPreview;
#X obj 425 625 print;
#X obj 724 331 s previewFilename;
#X msg 722 290 aisha.wav;
#X obj 728 420 s masterVolume;
#X obj 725 475 s togglePreview;
#X obj 708 514 s previewTempo;
#X msg 709 442 1;
#X msg 714 369 1;
#X obj 477 238 r control6;
#X msg 551 240 0;
#X obj 554 204 loadbang;
#X connect 0 0 36 0;
#X connect 0 0 38 0;
#X connect 1 0 2 0;
#X connect 1 1 3 0;
#X connect 2 0 11 0;
#X connect 3 0 12 0;
#X connect 4 0 2 0;
#X connect 4 1 3 0;
#X connect 5 0 2 0;
#X connect 5 1 3 0;
#X connect 6 0 2 0;
#X connect 6 1 3 0;
#X connect 7 0 2 0;
#X connect 7 1 3 0;
#X connect 8 0 2 0;
#X connect 8 1 3 0;
#X connect 9 0 2 0;
#X connect 9 1 3 0;
#X connect 10 0 2 0;
#X connect 10 1 3 0;
#X connect 11 0 13 0;
#X connect 12 0 13 1;
#X connect 13 0 32 0;
#X connect 13 1 33 0;
#X connect 14 0 13 0;
#X connect 15 0 13 0;
#X connect 16 0 14 0;
#X connect 16 0 17 0;
#X connect 16 0 21 0;
#X connect 17 0 15 0;
#X connect 17 0 18 0;
#X connect 23 0 40 0;
#X connect 24 0 26 0;
#X connect 26 0 27 0;
#X connect 27 0 29 0;
#X connect 27 1 29 0;
#X connect 29 0 35 0;
#X connect 30 0 31 0;
#X connect 32 0 22 0;
#X connect 33 0 22 1;
#X connect 34 0 16 0;
#X connect 35 0 34 0;
#X connect 36 0 37 0;
#X connect 37 0 11 1;
#X connect 38 0 39 0;
#X connect 39 0 12 1;
#X connect 40 0 16 0;
#X connect 42 0 33 0;
#X connect 42 0 32 0;
#X connect 43 0 44 0;
#X connect 44 0 42 1;
#X connect 44 0 46 0;
#X connect 45 0 42 0;
#X connect 48 0 47 0;
#X connect 52 0 50 0;
#X connect 52 0 51 0;
#X connect 53 0 49 0;
#X connect 54 0 26 0;
#X connect 55 0 26 0;
#X connect 56 0 55 0;
#X restore 46 100 pd output-stage;
#X obj 47 129 loadbang;
#N canvas 307 226 630 490 vivian-loopbox 0;
#X obj 50 132 throw~ scope0;
#X obj 137 60 r filename0;
#X obj 51 69 bng 15 250 50 0 empty empty empty 17 7 0 10 -262144 -1
-1;
#N canvas 408 72 362 403 viv-channel0 0;
#X obj 16 31 inlet;
#X text 10 15 on/off;
#X obj 19 126 outlet~;
#X obj 156 29 inlet;
#X text 154 13 filename;
#X obj 158 149 soundfiler;
#N canvas 0 22 450 300 (subpatch) 0;
#X array buffer0 51840 float 2;
#X coords 0 1 51840 -1 200 140 1 0 0;
#X restore 45 205 graph;
#X msg 157 113 read -resize \$1 buffer0;
#X obj 157 82 makefilename %s;
#X obj 156 58 symbol \$1;
#X msg 17 61 0;
#X obj 18 91 tabplay~ buffer0;
#X connect 0 0 10 0;
#X connect 3 0 9 0;
#X connect 7 0 5 0;
#X connect 8 0 7 0;
#X connect 9 0 8 0;
#X connect 10 0 11 0;
#X connect 11 0 2 0;
#X restore 50 102 pd viv-channel0;
#X obj 224 72 bng 15 250 50 0 empty empty empty 17 7 0 10 -262144 -1
-1;
#X obj 407 77 bng 15 250 50 0 empty empty empty 17 7 0 10 -262144 -1
-1;
#X obj 50 211 bng 15 250 50 0 empty empty empty 17 7 0 10 -262144 -1
-1;
#X obj 223 214 bng 15 250 50 0 empty empty empty 17 7 0 10 -262144
-1 -1;
#X obj 406 219 bng 15 250 50 0 empty empty empty 17 7 0 10 -262144
-1 -1;
#X obj 310 63 r filename1;
#N canvas 408 72 389 416 viv-channel1 0;
#X obj 16 31 inlet;
#X text 10 15 on/off;
#X obj 19 126 outlet~;
#X obj 156 29 inlet;
#X text 154 13 filename;
#X obj 158 148 soundfiler;
#N canvas 0 22 450 300 (subpatch) 0;
#X array buffer1 57600 float 2;
#X coords 0 1 57600 -1 200 140 1 0 0;
#X restore 56 205 graph;
#X obj 157 82 makefilename %s;
#X obj 156 58 symbol \$1;
#X msg 17 61 0;
#X obj 18 91 tabplay~ buffer1;
#X msg 157 112 read -resize \$1 buffer1;
#X connect 0 0 9 0;
#X connect 3 0 8 0;
#X connect 7 0 11 0;
#X connect 8 0 7 0;
#X connect 9 0 10 0;
#X connect 10 0 2 0;
#X connect 11 0 5 0;
#X restore 223 105 pd viv-channel1;
#X obj 493 68 r filename2;
#N canvas 408 72 377 438 viv-channel2 0;
#X obj 16 31 inlet;
#X text 10 15 on/off;
#X obj 19 126 outlet~;
#X obj 156 29 inlet;
#X text 154 13 filename;
#X obj 160 154 soundfiler;
#N canvas 0 22 450 300 (subpatch) 0;
#X array buffer2 64512 float 2;
#X coords 0 1 64512 -1 200 140 1 0 0;
#X restore 43 218 graph;
#X obj 157 82 makefilename %s;
#X obj 156 58 symbol \$1;
#X msg 17 61 0;
#X obj 18 91 tabplay~ buffer2;
#X msg 159 118 read -resize \$1 buffer2;
#X connect 0 0 9 0;
#X connect 3 0 8 0;
#X connect 7 0 11 0;
#X connect 8 0 7 0;
#X connect 9 0 10 0;
#X connect 10 0 2 0;
#X connect 11 0 5 0;
#X restore 406 110 pd viv-channel2;
#X obj 136 202 r filename3;
#X obj 406 140 throw~ scope2;
#X obj 49 274 throw~ scope3;
#N canvas 408 72 357 388 viv-channel3 0;
#X obj 16 31 inlet;
#X text 10 15 on/off;
#X obj 19 126 outlet~;
#X obj 156 29 inlet;
#X text 154 13 filename;
#X obj 159 148 soundfiler;
#N canvas 0 22 450 300 (subpatch) 0;
#X array buffer3 35712 float 2;
#X coords 0 1 35712 -1 200 140 1 0 0;
#X restore 45 201 graph;
#X obj 157 82 makefilename %s;
#X obj 156 58 symbol \$1;
#X msg 17 61 0;
#X obj 18 91 tabplay~ buffer3;
#X msg 158 112 read -resize \$1 buffer3;
#X connect 0 0 9 0;
#X connect 3 0 8 0;
#X connect 7 0 11 0;
#X connect 8 0 7 0;
#X connect 9 0 10 0;
#X connect 10 0 2 0;
#X connect 11 0 5 0;
#X restore 49 244 pd viv-channel3;
#N canvas 408 72 590 477 viv-channel4 0;
#X obj 16 31 inlet;
#X text 10 15 on/off;
#X obj 19 126 outlet~;
#X obj 156 29 inlet;
#X text 154 13 filename;
#X obj 157 149 soundfiler;
#N canvas 0 22 450 300 (subpatch) 0;
#X array buffer4 50688 float 2;
#X coords 0 1 50688 -1 200 140 1 0 0;
#X restore 55 207 graph;
#X obj 157 82 makefilename %s;
#X obj 156 58 symbol \$1;
#X msg 17 61 0;
#X obj 18 91 tabplay~ buffer4;
#X msg 156 113 read -resize \$1 buffer4;
#X connect 0 0 9 0;
#X connect 3 0 8 0;
#X connect 7 0 11 0;
#X connect 8 0 7 0;
#X connect 9 0 10 0;
#X connect 10 0 2 0;
#X connect 11 0 5 0;
#X restore 222 247 pd viv-channel4;
#X obj 222 277 throw~ scope4;
#X obj 309 205 r filename4;
#X obj 492 210 r filename5;
#N canvas 408 72 374 432 viv-channel5 0;
#X obj 16 31 inlet;
#X text 10 15 on/off;
#X obj 19 126 outlet~;
#X obj 156 29 inlet;
#X text 154 13 filename;
#X obj 159 151 soundfiler;
#N canvas 0 22 450 300 (subpatch) 0;
#X array buffer5 48384 float 2;
#X coords 0 1 48384 -1 200 140 1 0 0;
#X restore 54 199 graph;
#X obj 157 82 makefilename %s;
#X obj 156 58 symbol \$1;
#X msg 17 61 0;
#X obj 18 91 tabplay~ buffer5;
#X msg 158 115 read -resize \$1 buffer5;
#X connect 0 0 9 0;
#X connect 3 0 8 0;
#X connect 7 0 11 0;
#X connect 8 0 7 0;
#X connect 9 0 10 0;
#X connect 10 0 2 0;
#X connect 11 0 5 0;
#X restore 405 252 pd viv-channel5;
#X obj 405 282 throw~ scope5;
#X obj 223 135 throw~ scope1;
#X obj 51 32 r trigger0;
#X obj 224 35 r trigger1;
#X obj 407 40 r trigger2;
#X obj 50 174 r trigger3;
#X obj 223 177 r trigger4;
#X obj 406 182 r trigger5;
#X connect 1 0 3 1;
#X connect 2 0 3 0;
#X connect 3 0 0 0;
#X connect 4 0 10 0;
#X connect 5 0 12 0;
#X connect 6 0 16 0;
#X connect 7 0 17 0;
#X connect 8 0 21 0;
#X connect 9 0 10 1;
#X connect 10 0 23 0;
#X connect 11 0 12 1;
#X connect 12 0 14 0;
#X connect 13 0 16 1;
#X connect 16 0 15 0;
#X connect 17 0 18 0;
#X connect 19 0 17 1;
#X connect 20 0 21 1;
#X connect 21 0 22 0;
#X connect 24 0 2 0;
#X connect 25 0 4 0;
#X connect 26 0 5 0;
#X connect 27 0 6 0;
#X connect 28 0 7 0;
#X connect 29 0 8 0;
#X restore 48 23 pd vivian-loopbox;
#N canvas 350 26 928 612 timers 1;
#X obj 54 125 bng 15 250 50 0 empty empty empty 17 7 0 10 -262144 -1
-1;
#X obj 86 45 hsl 128 15 100 10000 0 0 empty empty empty -2 -8 0 10
-262144 -1 -1 5003 1;
#X obj 83 22 r loopLength0;
#X obj 55 96 metro;
#X obj 213 124 bng 15 250 50 0 empty empty empty 17 7 0 10 -262144
-1 -1;
#X obj 245 44 hsl 128 15 100 10000 0 0 empty empty empty -2 -8 0 10
-262144 -1 -1 5131 1;
#X obj 214 95 metro;
#X obj 372 125 bng 15 250 50 0 empty empty empty 17 7 0 10 -262144
-1 -1;
#X obj 404 45 hsl 128 15 100 10000 0 0 empty empty empty -2 -8 0 10
-262144 -1 -1 5260 1;
#X obj 373 96 metro;
#X obj 27 303 bng 15 250 50 0 empty empty empty 17 7 0 10 -262144 -1
-1;
#X obj 59 223 hsl 128 15 100 10000 0 0 empty empty empty -2 -8 0 10
-262144 -1 -1 5388 1;
#X obj 28 274 metro;
#X obj 186 302 bng 15 250 50 0 empty empty empty 17 7 0 10 -262144
-1 -1;
#X obj 218 222 hsl 128 15 100 10000 0 0 empty empty empty -2 -8 0 10
-262144 -1 -1 5516 1;
#X obj 187 273 metro;
#X obj 345 303 bng 15 250 50 0 empty empty empty 17 7 0 10 -262144
-1 -1;
#X obj 377 223 hsl 128 15 100 10000 0 0 empty empty empty -2 -8 0 10
-262144 -1 -1 5644 1;
#X obj 346 274 metro;
#X obj 40 478 bng 15 250 50 0 empty empty empty 17 7 0 10 -262144 -1
-1;
#X obj 72 398 hsl 128 15 100 10000 0 0 empty empty empty -2 -8 0 10
-262144 -1 -1 5773 1;
#X obj 41 449 metro;
#X obj 242 21 r loopLength1;
#X obj 401 22 r loopLength2;
#X obj 56 200 r loopLength3;
#X obj 215 199 r loopLength4;
#X obj 374 200 r loopLength5;
#X obj 69 375 r loopLength6;
#X obj 55 149 s trigger0;
#X obj 214 148 s trigger1;
#X obj 373 149 s trigger2;
#X obj 28 327 s trigger3;
#X obj 187 326 s trigger4;
#X obj 346 327 s trigger5;
#X obj 41 502 s trigger6;
#X obj 285 433 r control0;
#X obj 373 435 r control1;
#X obj 461 435 r control2;
#X obj 547 434 r control3;
#X obj 634 435 r control4;
#X obj 719 434 r control5;
#X obj 286 457 * 9900;
#X obj 286 480 + 100;
#X obj 285 504 s loopLength0;
#X obj 374 457 * 9900;
#X obj 374 480 + 100;
#X obj 462 457 * 9900;
#X obj 462 480 + 100;
#X obj 549 457 * 9900;
#X obj 549 480 + 100;
#X obj 634 456 * 9900;
#X obj 634 479 + 100;
#X obj 720 456 * 9900;
#X obj 720 479 + 100;
#X obj 373 504 s loopLength1;
#X obj 461 504 s loopLength2;
#X obj 548 504 s loopLength3;
#X obj 633 503 s loopLength4;
#X obj 719 503 s loopLength5;
#X connect 0 0 28 0;
#X connect 1 0 3 1;
#X connect 1 0 3 0;
#X connect 2 0 1 0;
#X connect 3 0 0 0;
#X connect 4 0 29 0;
#X connect 5 0 6 1;
#X connect 5 0 6 0;
#X connect 6 0 4 0;
#X connect 7 0 30 0;
#X connect 8 0 9 1;
#X connect 8 0 9 0;
#X connect 9 0 7 0;
#X connect 10 0 31 0;
#X connect 11 0 12 1;
#X connect 11 0 12 0;
#X connect 12 0 10 0;
#X connect 13 0 32 0;
#X connect 14 0 15 1;
#X connect 14 0 15 0;
#X connect 15 0 13 0;
#X connect 16 0 33 0;
#X connect 17 0 18 1;
#X connect 17 0 18 0;
#X connect 18 0 16 0;
#X connect 19 0 34 0;
#X connect 20 0 21 1;
#X connect 20 0 21 0;
#X connect 21 0 19 0;
#X connect 22 0 5 0;
#X connect 23 0 8 0;
#X connect 24 0 11 0;
#X connect 25 0 14 0;
#X connect 26 0 17 0;
#X connect 27 0 20 0;
#X connect 35 0 41 0;
#X connect 36 0 44 0;
#X connect 37 0 46 0;
#X connect 38 0 48 0;
#X connect 39 0 50 0;
#X connect 40 0 52 0;
#X connect 41 0 42 0;
#X connect 42 0 43 0;
#X connect 44 0 45 0;
#X connect 45 0 54 0;
#X connect 46 0 47 0;
#X connect 47 0 55 0;
#X connect 48 0 49 0;
#X connect 49 0 56 0;
#X connect 50 0 51 0;
#X connect 51 0 57 0;
#X connect 52 0 53 0;
#X connect 53 0 58 0;
#X restore 47 49 pd timers;
#X text 264 58 F2 G#2 C3 C#3 D#3 F3 G#3;
#X msg 47 167 \; masterVolume 1 \; \; filename0 sample0.wav \; filename1
sample1.wav \; filename2 sample2.wav \; filename3 sample3.wav \; filename4
sample4.wav \; filename5 sample5.wav \; filename6 sample6.wav \; \;
pan0 0 \; pan1 53 \; pan2 108 \; pan3 161 \; pan4 214 \; pan5 267 \;
pan6 320 \; \; loopLength0 4000 \; loopLength1 4100 \; loopLength2
4200 \; loopLength3 4300 \; loopLength4 4400 \; loopLength5 4500 \;
loopLength6 4600 \; \;;
#X connect 2 0 6 0;
